<svg xmlns="http://www.w3.org/2000/svg" xmlns:xlink="http://www.w3.org/1999/xlink" xmlns:lucid="lucid" width="3942" height="1282"><g transform="translate(761.0000000030986 761.0000000004128)" lucid:page-tab-id="0_0"><path d="M-1000-1000h4500v2000h-4500z" fill="#fff"/><path d="M1074.25-735.7A41.48 41.48 0 0 0 1086-734h1068a6 6 0 0 1 6 6V514a6 6 0 0 1-6 6H-754a6 6 0 0 1-6-6V-754a6 6 0 0 1 6-6H986a41.48 41.48 0 0 1 11.75 1.7zM-760-734h1840" fill="#fff"/><path d="M1082.43-734.15l1.2.08 1.18.05 1.2.02h3m4 0h5.98m4 0h5.98m4 0h5.98m4 0h5.98m4 0h5.98m4 0h5.98m4 0h5.98m4 0h6m3.98 0h6m3.98 0h6m3.98 0h6m3.98 0h6m3.98 0h6m3.98 0h6m3.98 0h6m4 0h5.97m4 0h5.98m4 0h5.98m4 0h5.98m4 0h5.98m4 0h5.98m4 0h5.98m4 0h5.98m4 0h6m3.98 0h6m3.98 0h6m3.98 0h6m3.98 0h6m3.98 0h6m3.98 0h6m4 0h5.97m4 0h6m4 0h5.98m4 0h5.98m4 0h5.98m4 0h5.98m4 0h5.98m4 0h5.98m4 0h6m3.98 0h6m3.98 0h6m3.98 0h6m3.98 0h6m3.98 0h6m3.98 0h6m4 0h5.97m4 0h6m3.98 0h6m4 0h5.98m4 0h5.98m4 0h5.98m4 0h5.98m4 0h5.98m4 0h5.98m4 0h6m3.98 0h6m3.98 0h6m3.98 0h6m3.98 0h6m3.98 0h6m3.98 0h6m4 0h5.98m4 0h5.98m4 0h5.98m4 0h5.98m4 0h5.98m4 0h5.98m4 0h5.98m4 0h5.98m4 0h6m3.98 0h6m3.98 0h6m3.98 0h6m3.98 0h6m3.98 0h6m4 0h5.97m4 0h6m3.98 0h6m3.98 0h6m3.98 0h6m4 0h5.98m4 0h5.98m4 0h5.98m4 0h5.98m4 0h6m3.98 0h6m3.98 0h6m3.98 0h6m3.98 0h6m3.98 0h6m4 0h5.97m4 0h5.98m4 0h5.98m4 0h5.98m4 0h5.98m4 0h5.98m4 0h5.98m4 0h5.98m4 0h5.98m4 0h6m3.98 0h6m3.98 0h6m3.98 0h6m3.98 0h6m3.98 0h6m3.98 0h6m4 0h2.98l.94.07.9.22.88.35m2.63 2.63l.36.87.23.9.07.95v3m0 4v6.02m0 4v6.02m0 4v6m0 4.02v6m0 4.02v6m0 4v6.02m0 4v6.02m0 4v6m0 4.02v6m0 4.02v6m0 4v6.02m0 4v6.02m0 4v6m0 4.02v6m0 4.02v6m0 4v6.02m0 4v6.02m0 4v6m0 4.02v6m0 4.02v6m0 4v6.02m0 4v6.02m0 4v6.02m0 4v6m0 4.02v6m0 4.02v6m0 4v6.02m0 4v6.02m0 4v6m0 4.02v6m0 4v6.02m0 4v6.02m0 4v6.02m0 4v6m0 4.02v6m0 4.02v6m0 4v6.02m0 4v6.02m0 4v6m0 4.02v6m0 4.02v6m0 4v6.02m0 4v6.02m0 4v6m0 4.02v6m0 4.02v6m0 4v6.02m0 4v6.02m0 4v6m0 4.02v6m0 4.02v6m0 4v6.02m0 4v6.02m0 4v6.02m0 4v6m0 4.02v6m0 4v6.02m0 4v6.02m0 4v6.02m0 4v6m0 4.02v6m0 4.02v6m0 4v6.02m0 4v6.02m0 4v6m0 4.02v6m0 4.02v6m0 4v6.02m0 4v6.02m0 4v6m0 4.02v6m0 4.02v6m0 4V6.2m0 4v6.02m0 4v6.02m0 4v6m0 4.02v6m0 4v6.02m0 4v6.02m0 4v6.02m0 4v6m0 4.02v6m0 4v6.02m0 4v6.02m0 4v6.02m0 4v6m0 4.02v6m0 4v6.02m0 4v6.02m0 4v6.02m0 4v6m0 4.02v6m0 4.02v6m0 4v6.02m0 4v6.02m0 4v6m0 4.02v6m0 4.02v6m0 4v6.02m0 4v6.02m0 4v6m0 4.02v6m0 4.02v6m0 4v6.02m0 4v6.02m0 4v6m0 4.02v6m0 4.02v6m0 4v6.02m0 4v6.02m0 4v6.02m0 4v6m0 4.02v6m0 4v6.02m0 4v6.02m0 4v6.02m0 4v6m0 4.02v6m0 4.02v6m0 4v6.02m0 4v6.02m0 4v6m0 4.02v6m0 4V514l-.07.94-.22.9-.35.88m-2.63 2.63l-.87.36-.9.23-.95.07h-3m-4 0h-6m-4 0h-5.98m-4 0h-6m-4 0h-6m-4 0h-5.98m-4 0h-6m-4 0h-6m-4 0h-5.98m-4 0h-6m-4 0h-6m-4 0h-5.98m-4 0h-6m-4 0h-6m-4 0h-5.98m-4 0h-6m-4 0h-6m-3.98 0h-6m-4 0h-6m-4 0h-6m-3.98 0h-6m-4 0h-6m-4 0h-6m-3.98 0h-6m-4 0h-6m-4 0h-6m-3.98 0h-6m-4 0h-6m-4 0h-6m-3.98 0h-6m-4 0h-6m-4 0h-6m-3.98 0h-6m-4 0h-6m-4 0h-5.98m-4 0h-6m-4 0h-6m-4 0h-5.98m-4 0h-6m-4 0h-6m-4 0h-5.98m-4 0h-6m-4 0h-6m-4 0h-5.98m-4 0h-6m-4 0h-6m-4 0h-5.98m-4 0h-6m-4 0h-6m-3.98 0h-6m-4 0h-6m-4 0h-6m-3.98 0h-6m-4 0h-6m-4 0h-6m-3.98 0h-6m-4 0h-6m-4 0h-6m-3.98 0h-6m-4 0h-6m-4 0h-6m-3.98 0h-6m-4 0h-6m-4 0h-6m-3.98 0h-6m-4 0h-6m-4 0h-5.98m-4 0h-6m-4 0h-6m-4 0h-5.98m-4 0h-6m-4 0h-6m-4 0h-5.98m-4 0h-6m-4 0h-6m-4 0h-5.98m-4 0h-6m-4 0h-6m-4 0h-5.98m-4 0h-6m-4 0h-6m-3.98 0h-6m-4 0h-6m-4 0h-6m-3.98 0h-6m-4 0h-6m-4 0h-6m-3.98 0h-6m-4 0h-6m-4 0h-6m-3.98 0h-6m-4 0h-6m-4 0h-6m-3.98 0h-6m-4 0h-6m-4 0h-6m-3.98 0h-6m-4 0h-6m-4 0h-5.98m-4 0h-6m-4 0h-6m-4 0h-5.98m-4 0h-6m-4 0h-6m-4 0h-5.98m-4 0h-6m-4 0h-6m-4 0h-5.98m-4 0h-6m-4 0h-6m-4 0h-5.98m-4 0h-6m-4 0h-6m-3.98 0h-6m-4 0h-6m-4 0h-6m-4 0h-5.98m-4 0h-6m-4 0h-6m-3.98 0h-6m-4 0h-6m-4 0h-6m-3.98 0h-6m-4 0h-6m-4 0h-6m-3.98 0h-6m-4 0h-6m-4 0h-6m-3.98 0h-6m-4 0h-6m-4 0h-5.98m-4 0h-6m-4 0h-6m-4 0h-5.98m-4 0h-6m-4 0h-6m-4 0h-5.98m-4 0h-6m-4 0h-6m-4 0h-5.98m-4 0h-6m-4 0h-6m-4 0H732m-4 0h-6m-4 0h-6m-4 0H702m-4 0h-6m-4 0h-6m-4 0h-5.98m-4 0h-6m-4 0h-6m-3.98 0h-6m-4 0h-6m-4 0h-6m-3.98 0h-6m-4 0h-6m-4 0h-6m-3.98 0h-6m-4 0h-6m-4 0h-6m-3.98 0h-6m-4 0h-6m-4 0h-6m-3.98 0h-6m-4 0h-6m-4 0h-5.98m-4 0h-6m-4 0h-6m-4 0h-5.98m-4 0h-6m-4 0h-6m-4 0h-5.98m-4 0h-6m-4 0h-6m-4 0h-5.98m-4 0h-6m-4 0h-6m-4 0h-5.98m-4 0h-6m-4 0h-6m-4 0h-5.98m-4 0h-6m-4 0h-6m-3.98 0h-6m-4 0h-6m-4 0h-6m-3.98 0h-6m-4 0h-6m-4 0h-6m-3.98 0h-6m-4 0h-6m-4 0h-6m-3.98 0h-6m-4 0h-6m-4 0h-5.98m-4 0h-6m-4 0h-6m-4 0h-5.98m-4 0h-6m-4 0h-6m-4 0h-5.98m-4 0h-6m-4 0h-6m-4 0h-5.98m-4 0h-6m-4 0h-6m-4 0h-5.98m-4 0h-6m-4 0h-6m-4 0h-5.98m-4 0h-6m-4 0h-6m-3.98 0h-6m-4 0h-6m-4 0h-6m-3.98 0h-6m-4 0h-6m-4 0h-6m-3.98 0h-6m-4 0h-6m-4 0h-6m-3.98 0h-6m-4 0h-6m-4 0h-5.98m-4 0h-6m-4 0h-6m-4 0h-5.98m-4 0h-6m-4 0h-6m-4 0h-5.98m-4 0h-6m-4 0h-6m-4 0h-5.98m-4 0h-6m-4 0h-6m-4 0h-5.98m-4 0h-6m-4 0h-6m-4 0h-5.98m-4 0h-6m-4 0h-6m-4 0h-5.98m-4 0h-6m-4 0h-6m-4 0h-5.98m-4 0h-6m-4 0h-6m-3.98 0h-6m-4 0h-6m-4 0h-6m-3.98 0h-6m-4 0h-6m-4 0h-6m-3.98 0h-6m-4 0h-6m-4 0h-6m-3.98 0h-6m-4 0h-6m-4 0h-6m-3.98 0h-6m-4 0h-6m-4 0h-5.98m-4 0h-6m-4 0h-6m-4 0h-5.98m-4 0h-6m-4 0h-6m-4 0h-5.98m-4 0h-6m-4 0h-6m-4 0h-5.98m-4 0h-6m-4 0h-6m-4 0h-5.98m-4 0h-6m-4 0h-6m-4 0h-5.98m-4 0h-6m-4 0h-6m-4 0h-5.98m-4 0h-6m-4 0h-6m-3.98 0h-6m-4 0h-6m-4 0h-6m-3.98 0h-6m-4 0h-6m-4 0h-6m-3.98 0h-6m-4 0h-6m-4 0h-6m-3.98 0h-3l-.94-.07-.9-.22-.88-.35m-2.63-2.63l-.36-.87-.23-.9-.07-.95v-3m0-4v-5.98m0-4v-5.98m0-4v-6m0-3.98v-6m0-4v-5.98m0-4v-5.98m0-4v-6m0-3.98v-6m0-3.98v-6m0-4v-5.98m0-4v-5.98m0-4v-6m0-3.98v-6m0-3.98v-6m0-4v-5.98m0-4v-5.98m0-4v-6m0-3.98v-6m0-4v-5.98m0-4v-5.98m0-4v-6m0-3.98v-6m0-3.98v-6m0-4v-5.98m0-4v-5.98m0-4v-6m0-3.98v-6m0-3.98v-6m0-4v-5.98m0-4v-5.98m0-4v-6m0-3.98v-6m0-4v-5.98m0-4v-5.98m0-4v-5.98m0-4v-6m0-3.98v-6m0-4v-5.98m0-4v-5.98m0-4v-5.98m0-4v-6m0-3.98v-6m0-4V81.7m0-4V71.7m0-4v-6m0-3.98v-6m0-3.98v-6m0-4v-5.98m0-4V21.8m0-4v-6m0-3.98v-6m0-4v-5.98m0-4v-5.98m0-4v-5.98m0-4v-6m0-3.98v-6m0-4v-5.98m0-4v-5.98m0-4v-6m0-3.98v-6m0-3.98v-6m0-4V-108m0-4V-118m0-4v-6m0-3.98v-6m0-4v-5.98m0-4v-5.98m0-4v-5.98m0-4v-6m0-3.98v-6m0-4v-5.98m0-4v-5.98m0-4v-6m0-3.98v-6m0-3.98v-6m0-4v-5.98m0-4v-5.98m0-4v-6m0-3.98v-6m0-4v-5.98m0-4v-5.98m0-4v-5.98m0-4v-6m0-3.98v-6m0-4v-5.98m0-4v-5.98m0-4v-6m0-3.98v-6m0-3.98v-6m0-4v-5.98m0-4v-5.98m0-4v-6m0-3.98v-6m0-3.98v-6m0-4v-5.98m0-4v-5.98m0-4v-6m0-3.98v-6m0-4v-5.98m0-4v-5.98m0-4v-5.98m0-4v-6m0-3.98v-6m0-4v-5.98m0-4v-5.98m0-4v-6m0-3.98v-6m0-3.98v-6m0-4v-5.98m0-4v-5.98m0-4v-6m0-3.98v-6m0-4v-5.98m0-4v-5.98m0-4v-5.98m0-4v-6m0-3.98v-6m0-4v-5.98m0-4v-5.98m0-4v-6m0-3.98v-6m0-3.98v-6m0-4v-5.98m0-4v-5.98m0-4v-6m0-3.98v-6m0-4V-754l.07-.94.22-.9.35-.88m2.63-2.63l.87-.36.9-.23.95-.07h3m4 0h6m4 0h6m4 0h6m4 0h6m4 0h6m4 0h6m4 0h6m4 0h6m4 0h6m4 0h6m4 0h6m4 0h6m4 0h6m4 0h6m4 0h6m4 0h6m4 0h6m4 0h6m4 0h6m4 0h6m4 0h6m4 0h6m4 0h6m4 0h6m4 0h6m4 0h6m4 0h6m4 0h6m4 0h6m4 0h6m4 0h6m4 0h6m4 0h6m4 0h6m4 0h6m4 0h6m4 0h6m4 0h6m4 0h6m4 0h6m4 0h6m4 0h6m4 0h6m4 0h6m4 0h6m4 0h6m4 0h6m4 0h6m4 0h6m4 0h6m4 0h6m4 0h6m4 0h6m4 0h6m4 0h6m4 0h6m4 0h6m4 0h6m4 0h6m4 0h6m4 0h6m4 0h6m4 0h6m4 0h6m4 0h6m4 0h6m4 0h6m4 0h6m4 0h6m4 0h6m4 0h6m4 0h6m4 0h6m4 0h6m4 0h6m4 0h6m4 0h6m4 0h6m4 0h6m4 0h6m4 0h6m4 0h6m4 0h6m4 0h6m4 0h6m4 0h6m4 0h6m4 0h6m4 0h6m4 0h6m4 0h6m4 0h6m4 0h6m4 0h6m4 0h6m4 0h6m4 0h6m4 0h6m4 0h6m4 0h6m4 0h6m4 0h6m4 0h6m4 0h6m4 0h6m4 0h6m4 0h6m4 0h6m4 0h6m4 0h6m4 0h6m4 0h6m4 0h6m4 0h6m4 0h6m4 0h6m4 0h6m4 0h6m4 0h6m4 0h6m4 0h6m4 0h6m4 0h6m4 0h6m4 0h6m4 0h6m4 0h6m4 0h6m4 0h6m4 0h6m4 0h6m4 0h6m4 0h6m4 0h6m4 0h6m4 0h6m4 0h6m4 0h6m4 0h6m4 0h6m4 0h6m4 0h6m4 0h6m4 0h6m4 0h6m4 0h6m4 0h6m4 0h6m4 0h6m4 0h6m4 0h6m4 0h6m4 0h6m4 0h6m4 0h6m4 0h6m4 0h6m4 0h6m4 0h6m4 0h6m4 0h6m4 0h6m4 0h6m4 0h6m4 0h6m4 0h6m4 0h6m4 0h6m4 0h6m4 0h6m4 0h6m4 0h6m4 0h6m4 0h3l1.2.02 1.18.05 1.2.08m4.7.7l1.17.24 1.16.28 1.15.32 2.87.85m3.83 1.13l5.73 1.7m3.83 1.12l5.75 1.7m3.82 1.13l5.74 1.7m3.83 1.12l5.74 1.7m3.82 1.13l5.73 1.7m3.83 1.12l5.73 1.7m3.82 1.13l5.73 1.7m3.83 1.12l2.87.85 1.14.32 1.15.3 1.16.24M-760-734h3m4 0h6m4 0h6m4 0h6m4 0h6m4 0h6m4 0h6m4 0h6m4 0h6m4 0h6m4 0h6m4 0h6m4 0h6m4 0h6m4 0h6m4 0h6m4 0h6m4 0h6m4 0h6m4 0h6m4 0h6m4 0h6m4 0h6m4 0h6m4 0h6m4 0h6m4 0h6m4 0h6m4 0h6m4 0h6m4 0h6m4 0h6m4 0h6m4 0h6m4 0h6m4 0h6m4 0h6m4 0h6m4 0h6m4 0h6m4 0h6m4 0h6m4 0h6m4 0h6m4 0h6m4 0h6m4 0h6m4 0h6m4 0h6m4 0h6m4 0h6m4 0h6m4 0h6m4 0h6m4 0h6m4 0h6m4 0h6m4 0h6m4 0h6m4 0h6m4 0h6m4 0h6m4 0h6m4 0h6m4 0h6m4 0h6m4 0h6m4 0h6m4 0h6m4 0h6m4 0h6m4 0h6m4 0h6m4 0h6m4 0h6m4 0h6m4 0h6m4 0h6m4 0h6m4 0h6m4 0h6m4 0h6m4 0h6m4 0h6m4 0h6m4 0h6m4 0h6m4 0h6m4 0h6m4 0h6m4 0h6m4 0h6m4 0h6m4 0h6m4 0h6m4 0h6m4 0h6m4 0h6m4 0h6m4 0h6m4 0h6m4 0h6m4 0h6m4 0h6m4 0h6m4 0h6m4 0h6m4 0h6m4 0h6m4 0h6m4 0h6m4 0h6m4 0h6m4 0h6m4 0h6m4 0h6m4 0h6m4 0h6m4 0h6m4 0h6m4 0h6m4 0h6m4 0h6m4 0h6m4 0h6m4 0h6m4 0h6m4 0h6m4 0h6m4 0h6m4 0h6m4 0h6m4 0h6m4 0h6m4 0h6m4 0h6m4 0h6m4 0h6m4 0h6m4 0h6m4 0h6m4 0h6m4 0h6m4 0h6m4 0h6m4 0h6m4 0h6m4 0h6m4 0h6m4 0h6m4 0h6m4 0h6m4 0h6m4 0h6m4 0h6m4 0h6m4 0h6m4 0h6m4 0h6m4 0h6m4 0h6m4 0h6m4 0h6m4 0h6m4 0h6m4 0h6m4 0h6m4 0h6m4 0h6m4 0h6m4 0h6m4 0h6m4 0h6m4 0h6m4 0h6m4 0h6m4 0h6m4 0h6m4 0h6m4 0h6m4 0h6m4 0h6m4 0h6m4 0h6m4 0h3" stroke="#000" stroke-width="2" fill="none"/><use xlink:href="#a" transform="matrix(1,0,0,1,-752,-760) translate(0 21.52777777777778)"/><path d="M460-174a6 6 0 0 1 6-6h362a6 6 0 0 1 6 6v160a6 6 0 0 1-6 6H466a6 6 0 0 1-6-6z" stroke="#000" stroke-width="2" fill="#fff"/><path d="M460-137.1h374M460-72.73h374" stroke="#000" stroke-width="2" fill="none"/><use xlink:href="#b" transform="matrix(1,0,0,1,468.00000000000006,-172) translate(153.91948784722223 21.58376736111111)"/><use xlink:href="#c" transform="matrix(1,0,0,1,472.00000000000006,-64.72395833333331) translate(0 32.583767361111114)"/><use xlink:href="#d" transform="matrix(1,0,0,1,472.00000000000006,-64.72395833333331) translate(137.99913194444446 32.583767361111114)"/><path d="M-740 306a6 6 0 0 1 6-6h362a6 6 0 0 1 6 6v160a6 6 0 0 1-6 6h-362a6 6 0 0 1-6-6z" stroke="#000" stroke-width="2" fill="#fff"/><path d="M-740 342.9h374m-374 64.38h374" stroke="#000" stroke-width="2" fill="none"/><use xlink:href="#e" transform="matrix(1,0,0,1,-732,308) translate(122.77256944444444 21.58376736111111)"/><use xlink:href="#c" transform="matrix(1,0,0,1,-728,415.27604166666663) translate(0 32.583767361111114)"/><use xlink:href="#d" transform="matrix(1,0,0,1,-728,415.27604166666663) translate(137.99913194444446 32.583767361111114)"/><path d="M-340 306a6 6 0 0 1 6-6H28a6 6 0 0 1 6 6v160a6 6 0 0 1-6 6h-362a6 6 0 0 1-6-6z" stroke="#000" stroke-width="2" fill="#fff"/><path d="M-340 342.9H34m-374 64.38H34" stroke="#000" stroke-width="2" fill="none"/><use xlink:href="#f" transform="matrix(1,0,0,1,-332,308) translate(108.53103298611113 21.58376736111111)"/><use xlink:href="#c" transform="matrix(1,0,0,1,-328,415.27604166666663) translate(0 32.583767361111114)"/><use xlink:href="#d" transform="matrix(1,0,0,1,-328,415.27604166666663) translate(137.99913194444446 32.583767361111114)"/><path d="M60 306a6 6 0 0 1 6-6h362a6 6 0 0 1 6 6v160a6 6 0 0 1-6 6H66a6 6 0 0 1-6-6z" stroke="#000" stroke-width="2" fill="#fff"/><path d="M60 342.9h374M60 407.27h374" stroke="#000" stroke-width="2" fill="none"/><use xlink:href="#g" transform="matrix(1,0,0,1,68,308) translate(97.36566840277777 21.58376736111111)"/><use xlink:href="#c" transform="matrix(1,0,0,1,72,415.27604166666663) translate(0 32.583767361111114)"/><use xlink:href="#d" transform="matrix(1,0,0,1,72,415.27604166666663) translate(137.99913194444446 32.583767361111114)"/><path d="M460 306a6 6 0 0 1 6-6h362a6 6 0 0 1 6 6v160a6 6 0 0 1-6 6H466a6 6 0 0 1-6-6z" stroke="#000" stroke-width="2" fill="#fff"/><path d="M460 342.9h374m-374 64.38h374" stroke="#000" stroke-width="2" fill="none"/><use xlink:href="#h" transform="matrix(1,0,0,1,468,308) translate(119.32204861111111 21.58376736111111)"/><use xlink:href="#c" transform="matrix(1,0,0,1,472,415.27604166666663) translate(0 32.583767361111114)"/><use xlink:href="#d" transform="matrix(1,0,0,1,472,415.27604166666663) translate(137.99913194444446 32.583767361111114)"/><path d="M860 306a6 6 0 0 1 6-6h362a6 6 0 0 1 6 6v160a6 6 0 0 1-6 6H866a6 6 0 0 1-6-6z" stroke="#000" stroke-width="2" fill="#fff"/><path d="M860 342.9h374m-374 64.38h374" stroke="#000" stroke-width="2" fill="none"/><use xlink:href="#i" transform="matrix(1,0,0,1,868,308) translate(67.39062500000003 21.58376736111111)"/><use xlink:href="#c" transform="matrix(1,0,0,1,872,415.27604166666663) translate(0 32.583767361111114)"/><use xlink:href="#d" transform="matrix(1,0,0,1,872,415.27604166666663) translate(137.99913194444446 32.583767361111114)"/><path d="M1260 306a6 6 0 0 1 6-6h468a6 6 0 0 1 6 6v192a6 6 0 0 1-6 6h-468a6 6 0 0 1-6-6z" stroke="#000" stroke-width="2" fill="#fff"/><path d="M1260 342.9h480m-480 64.38h480" stroke="#000" stroke-width="2" fill="none"/><use xlink:href="#j" transform="matrix(1,0,0,1,1268,308) translate(154.4455295138889 21.58376736111111)"/><use xlink:href="#c" transform="matrix(1,0,0,1,1272,415.27604166666663) translate(0 32.450954861111114)"/><use xlink:href="#k" transform="matrix(1,0,0,1,1272,415.27604166666663) translate(137.99913194444446 32.450954861111114)"/><use xlink:href="#l" transform="matrix(1,0,0,1,1272,415.27604166666663) translate(0 64.71657986111111)"/><use xlink:href="#m" transform="matrix(1,0,0,1,1272,415.27604166666663) translate(197.42838541666663 64.71657986111111)"/><use xlink:href="#n" transform="matrix(1,0,0,1,1272,415.27604166666663) translate(210.08029513888886 64.71657986111111)"/><use xlink:href="#o" transform="matrix(1,0,0,1,1272,415.27604166666663) translate(285.1128472222222 64.71657986111111)"/><use xlink:href="#m" transform="matrix(1,0,0,1,1272,415.27604166666663) translate(318.09895833333326 64.71657986111111)"/><use xlink:href="#p" transform="matrix(1,0,0,1,1272,415.27604166666663) translate(330.7508680555555 64.71657986111111)"/><use xlink:href="#m" transform="matrix(1,0,0,1,1272,415.27604166666663) translate(370.8875868055555 64.71657986111111)"/><use xlink:href="#q" transform="matrix(1,0,0,1,1272,415.27604166666663) translate(383.5394965277777 64.71657986111111)"/><path d="M1760 306a6 6 0 0 1 6-6h362a6 6 0 0 1 6 6v160a6 6 0 0 1-6 6h-362a6 6 0 0 1-6-6z" stroke="#000" stroke-width="2" fill="#fff"/><path d="M1760 342.9h374m-374 64.38h374" stroke="#000" stroke-width="2" fill="none"/><use xlink:href="#r" transform="matrix(1,0,0,1,1768,308) translate(54.91775173611114 21.58376736111111)"/><use xlink:href="#c" transform="matrix(1,0,0,1,1772,415.27604166666663) translate(0 32.583767361111114)"/><use xlink:href="#d" transform="matrix(1,0,0,1,1772,415.27604166666663) translate(137.99913194444446 32.583767361111114)"/><path d="M647-6.5V140a6 6 0 0 1-6 6H-547a6 6 0 0 0-6 6v116.63" stroke="#3a414a" fill="none"/><path d="M647.48-6.5h-.95V-7h.95z" stroke="#3a414a" stroke-width=".05" fill="#3a414a"/><path d="M-553 298.3l14.85-14.86L-553 268.6l-14.85 14.84z" stroke="#3a414a" fill="#fff"/><path d="M647-6.5V140a6 6 0 0 1-6 6h-788a6 6 0 0 0-6 6v116.63" stroke="#3a414a" fill="none"/><path d="M647.48-6.5h-.95V-7h.95z" stroke="#3a414a" stroke-width=".05" fill="#3a414a"/><path d="M-153 298.3l14.85-14.86L-153 268.6l-14.85 14.84z" stroke="#3a414a" fill="#fff"/><path d="M647-6.5V140a6 6 0 0 1-6 6H253a6 6 0 0 0-6 6v116.63" stroke="#3a414a" fill="none"/><path d="M647.48-6.5h-.95V-7h.95z" stroke="#3a414a" stroke-width=".05" fill="#3a414a"/><path d="M247 298.3l14.85-14.86L247 268.6l-14.85 14.84z" stroke="#3a414a" fill="#fff"/><path d="M647-6.5v275.13" stroke="#3a414a" fill="none"/><path d="M647.48-6.5h-.95V-7h.95z" stroke="#3a414a" stroke-width=".05" fill="#3a414a"/><path d="M647 298.3l14.85-14.86L647 268.6l-14.85 14.84z" stroke="#3a414a" fill="#fff"/><path d="M647-6.5V140a6 6 0 0 0 6 6h388a6 6 0 0 1 6 6v116.63" stroke="#3a414a" fill="none"/><path d="M647.48-6.5h-.95V-7h.95z" stroke="#3a414a" stroke-width=".05" fill="#3a414a"/><path d="M1047 298.3l14.85-14.86L1047 268.6l-14.85 14.84z" stroke="#3a414a" fill="#fff"/><path d="M647-6.5V140a6 6 0 0 0 6 6h841a6 6 0 0 1 6 6v116.63" stroke="#3a414a" fill="none"/><path d="M647.48-6.5h-.95V-7h.95z" stroke="#3a414a" stroke-width=".05" fill="#3a414a"/><path d="M1500 298.3l14.85-14.86L1500 268.6l-14.85 14.84z" stroke="#3a414a" fill="#fff"/><path d="M647-6.5V140a6 6 0 0 0 6 6h1288a6 6 0 0 1 6 6v116.63" stroke="#3a414a" fill="none"/><path d="M647.48-6.5h-.95V-7h.95z" stroke="#3a414a" stroke-width=".05" fill="#3a414a"/><path d="M1947 298.3l14.85-14.86L1947 268.6l-14.85 14.84z" stroke="#3a414a" fill="#fff"/><path d="M2999.16-293.28A10.04 10.04 0 0 0 3008-288h166a6 6 0 0 1 6 6v402a6 6 0 0 1-6 6h-468a6 6 0 0 1-6-6v-428a6 6 0 0 1 6-6h276a10.04 10.04 0 0 1 8.84 5.28zM2700-288h302" stroke="#000" stroke-width="2" fill="#fff"/><use xlink:href="#s" transform="matrix(1,0,0,1,2708,-314) translate(0 21.52777777777778)"/><path d="M2753-248a6 6 0 0 1 6-6h362a6 6 0 0 1 6 6V73a6 6 0 0 1-6 6h-362a6 6 0 0 1-6-6z" stroke="#000" stroke-width="2" fill="#fff"/><path d="M2753-211.1h374M2753-17.67h374" stroke="#000" stroke-width="2" fill="none"/><use xlink:href="#t" transform="matrix(1,0,0,1,2760.9991319444443,-246) translate(131.68098958333334 21.58376736111111)"/><use xlink:href="#u" transform="matrix(1,0,0,1,2764.9991319444443,-203.11197916666666) translate(0 32.55251736111112)"/><use xlink:href="#m" transform="matrix(1,0,0,1,2764.9991319444443,-203.11197916666666) translate(115.89626736111113 32.55251736111112)"/><use xlink:href="#v" transform="matrix(1,0,0,1,2764.9991319444443,-203.11197916666666) translate(128.54817708333334 32.55251736111112)"/><use xlink:href="#w" transform="matrix(1,0,0,1,2764.9991319444443,-203.11197916666666) translate(0 64.81814236111111)"/><use xlink:href="#m" transform="matrix(1,0,0,1,2764.9991319444443,-203.11197916666666) translate(101.23697916666666 64.81814236111111)"/><use xlink:href="#x" transform="matrix(1,0,0,1,2764.9991319444443,-203.11197916666666) translate(113.88888888888889 64.81814236111111)"/><use xlink:href="#y" transform="matrix(1,0,0,1,2764.9991319444443,-203.11197916666666) translate(0 97.08376736111111)"/><use xlink:href="#m" transform="matrix(1,0,0,1,2764.9991319444443,-203.11197916666666) translate(146.47352430555554 97.08376736111111)"/><use xlink:href="#z" transform="matrix(1,0,0,1,2764.9991319444443,-203.11197916666666) translate(159.12543402777777 97.08376736111111)"/><use xlink:href="#A" transform="matrix(1,0,0,1,2764.9991319444443,-203.11197916666666) translate(0 129.34939236111111)"/><use xlink:href="#m" transform="matrix(1,0,0,1,2764.9991319444443,-203.11197916666666) translate(137.63020833333331 129.34939236111111)"/><use xlink:href="#B" transform="matrix(1,0,0,1,2764.9991319444443,-203.11197916666666) translate(150.28211805555554 129.34939236111111)"/><use xlink:href="#C" transform="matrix(1,0,0,1,2764.9991319444443,-203.11197916666666) translate(0 161.61501736111111)"/><use xlink:href="#m" transform="matrix(1,0,0,1,2764.9991319444443,-203.11197916666666) translate(62.25043402777778 161.61501736111111)"/><use xlink:href="#D" transform="matrix(1,0,0,1,2764.9991319444443,-203.11197916666666) translate(74.90234375 161.61501736111111)"/><g><use xlink:href="#E" transform="matrix(1,0,0,1,2764.9991319444443,-9.661458333333343) translate(0 32.450954861111114)"/><use xlink:href="#F" transform="matrix(1,0,0,1,2764.9991319444443,-9.661458333333343) translate(0 64.71657986111111)"/><use xlink:href="#m" transform="matrix(1,0,0,1,2764.9991319444443,-9.661458333333343) translate(138.41145833333331 64.71657986111111)"/><use xlink:href="#G" transform="matrix(1,0,0,1,2764.9991319444443,-9.661458333333343) translate(151.06336805555554 64.71657986111111)"/></g><path d="M835.5-94h5m5.02 0h10.02m5.02 0h10.02m5 0h10.03m5.02 0h10.02m5 0h10.03m5.02 0h10m5.02 0h10.02m5 0h10.03m5 0h10.04m5.02 0h10.02m5 0h10.03m5 0h10.03m5 0h10.04m5 0h10.03m5 0H1066m5 0h10.03m5.02 0h10.02m5 0h10.03m5 0h10.03m5 0h10.03m5 0h10.04m5 0h10.03m5 0h10.03m5 0h10.04m5 0h10.03m5 0h10.03m5 0h10.03m5 0h10.02m5.02 0h10.02m5 0h10.03m5 0h10.02m5 0h10.04m5 0h10.03m5 0h10.02m5 0h10.03m5 0h10.04m5 0h10.02m5 0h10.03m5 0h10.03m5 0h10.04m5 0h10.03m5 0h10.03m5 0h10.03m5.02 0h10.03m5 0H1517m5 0h10.03m5.02 0h10.02m5.02 0h10.02m5 0h10.03m5.02 0h10.02m5 0h10.03m5 0h10.04m5.02 0h10.02m5 0h10.03m5 0h10.04m5.02 0h10.02m5 0h10.03m5 0h10.03m5 0h10.03m5.02 0h10.02m5 0h10.03m5 0h10.03m5 0h10.04m5 0h10.03m5 0h10.03m5 0h10.03m5 0h10.04m5 0h10.03m5 0h10.03m5 0h10.03m5 0h10.03m5 0h10.03m5 0h10.03m5 0h10.02m5 0h10.04m5 0H1983m5 0h10.02m5 0h10.03m5.02 0h10.02m5 0h10.02m5 0h10.03m5 0h10.03m5.02 0h10.02m5 0h10.03m5 0h10.03m5 0h10.03m5.03 0h10.02m5 0h10.03m5 0h10.03m5.02 0h10.03m5 0h10.03m5 0h10.03m5.02 0h10.02m5 0h10.04m5 0h10.03m5.02 0h10.02m5 0h10.03m5 0h10.04m5.02 0h10.02m5 0h10.03m5 0h10.03m5 0h10.04m5 0h10.03m5 0h10.03m5 0h10.03m5.02 0h10.02m5 0H2449m5 0h10.03m5 0h10.03m5 0h10.04m5 0h10.03m5 0h10.03m5 0h10.04m5 0h10.03m5 0h10.03m5 0h10.03m5 0h10.02m5.02 0h10.02m5 0h10.03m5 0h10.02m5 0h10.03m5.02 0h10.02m5 0h5" stroke="#3a414a" fill="none"/><path d="M835.5-93.53h-.5v-.94h.5z" stroke="#3a414a" stroke-width=".05" fill="#3a414a"/><path d="M2698-94l-13 7.5v-15z" stroke="#3a414a" fill="#3a414a"/><path d="M1680-134a6 6 0 0 1 6-6h228a6 6 0 0 1 6 6v48a6 6 0 0 1-6 6h-228a6 6 0 0 1-6-6z" fill="none"/><g><use xlink:href="#H" transform="matrix(1,0,0,1,1680,-140) translate(82.02799479166667 38.083767361111114)"/></g><path d="M1060-714a6 6 0 0 1 6-6h442a6 6 0 0 1 6 6v192a6 6 0 0 1-6 6h-442a6 6 0 0 1-6-6z" stroke="#000" stroke-width="2" fill="#fff"/><path d="M1060-677.1h454m-454 64.38h454" stroke="#000" stroke-width="2" fill="none"/><g><use xlink:href="#I" transform="matrix(1,0,0,1,1068,-712) translate(171.26866319444446 21.58376736111111)"/></g><g><use xlink:href="#J" transform="matrix(1,0,0,1,1072,-604.7239583333333) translate(0 32.450954861111114)"/><use xlink:href="#K" transform="matrix(1,0,0,1,1072,-604.7239583333333) translate(169.7265625 32.450954861111114)"/><use xlink:href="#L" transform="matrix(1,0,0,1,1072,-604.7239583333333) translate(230.89192708333331 32.450954861111114)"/><use xlink:href="#m" transform="matrix(1,0,0,1,1072,-604.7239583333333) translate(348.14453124999994 32.450954861111114)"/><use xlink:href="#M" transform="matrix(1,0,0,1,1072,-604.7239583333333) translate(360.7964409722222 32.450954861111114)"/><use xlink:href="#N" transform="matrix(1,0,0,1,1072,-604.7239583333333) translate(0 64.71657986111111)"/><use xlink:href="#m" transform="matrix(1,0,0,1,1072,-604.7239583333333) translate(131.59722222222223 64.71657986111111)"/><use xlink:href="#d" transform="matrix(1,0,0,1,1072,-604.7239583333333) translate(144.24913194444446 64.71657986111111)"/></g><path d="M0-574a6 6 0 0 1 6-6h362a6 6 0 0 1 6 6v160a6 6 0 0 1-6 6H6a6 6 0 0 1-6-6z" stroke="#000" stroke-width="2" fill="#fff"/><path d="M0-537.1h374M0-472.73h374" stroke="#000" stroke-width="2" fill="none"/><g><use xlink:href="#O" transform="matrix(1,0,0,1,8,-572) translate(148.55381944444446 21.58376736111111)"/></g><g><use xlink:href="#P" transform="matrix(1,0,0,1,12,-529.1119791666666) translate(0 32.583767361111114)"/><use xlink:href="#m" transform="matrix(1,0,0,1,12,-529.1119791666666) translate(127.4739583333333 32.583767361111114)"/><use xlink:href="#Q" transform="matrix(1,0,0,1,12,-529.1119791666666) translate(140.12586805555551 32.583767361111114)"/></g><path d="M647-195.5V-612a6 6 0 0 1 6-6h405.5" stroke="#3a414a" fill="none"/><path d="M647-182l-7.5-13h15z" stroke="#3a414a" fill="#3a414a"/><path d="M1059-617.52h-.5v-.96h.5z" stroke="#3a414a" stroke-width=".05" fill="#3a414a"/><g><use xlink:href="#R" transform="matrix(1,0,0,1,662.5008680555557,-201.12732304687506) translate(0 16.216875)"/></g><g><use xlink:href="#S" transform="matrix(1,0,0,1,1030.9165441406255,-642.2547460937501) translate(0 16.216875)"/></g><path d="M375.5-494h5.02m5.02 0h10.04m5 0h10.05m5.02 0h10.04m5 0h10.04m5.02 0h10.04m5.02 0h10.03m5.02 0h10.04m5.03 0h10.03m5.02 0h10.04m5.02 0h10.04m5 0h10.05m5.02 0h10.04m5 0h10.04m5.02 0h10.04m5.02 0h10.03m5.02 0h10.04m5.03 0h10.03m5.02 0h5.02" stroke="#3a414a" fill="none"/><path d="M375.5-493.52h-.5v-.96h.5z" stroke="#3a414a" stroke-width=".05" fill="#3a414a"/><path d="M646.5-494h.5" stroke="#3a414a" fill="none"/><path d="M700-654a6 6 0 0 1 6-6h116.07a6 6 0 0 1 6 6v24.9a6 6 0 0 1-6 6H706a6 6 0 0 1-6-6z" fill="none"/><g><use xlink:href="#T" transform="matrix(1,0,0,1,705,-655) translate(0 21.58376736111111)"/><use xlink:href="#U" transform="matrix(1,0,0,1,705,-655) translate(20.95269097222222 21.58376736111111)"/></g><path d="M1515.5-618h4.98m4.98 0h9.95m5 0h9.94m4.98 0h9.95m4.98 0h9.95m4.98 0h9.96m4.97 0h9.97m4.98 0h9.95m4.98 0h9.95m4.98 0h9.96m4.98 0h9.95m4.97 0h9.96m4.97 0h9.96m4.97 0h9.96m4.97 0h9.95m4.98 0h9.95m4.98 0h9.95m4.98 0h9.96m4.97 0h9.95m4.97 0h9.96m4.98 0h9.95m5 0h9.94m4.98 0h9.95m4.98 0h9.95m4.98 0h9.96m4.97 0h9.97m4.97 0h9.96m4.98 0h9.95m4.98 0h9.96m4.98 0h9.95m4.97 0h9.96m4.97 0h9.96m4.97 0h9.96m4.97 0h9.95m4.98 0h9.95m4.98 0h9.95m4.98 0h9.95m5 0h9.95m4.97 0h9.96m4.97 0h9.96m5 0h9.94m4.98 0h9.95m4.98 0h9.95m4.98 0h9.96m4.97 0h9.97m4.98 0h9.95m4.98 0h9.95m4.98 0h9.96m4.98 0h9.95m4.97 0h9.95m4.98 0h9.96m4.97 0h9.96m4.97 0h9.95m4.98 0h9.95m4.98 0h9.95m4.98 0h9.95m5 0h9.95m4.97 0h9.96m4.97 0h9.96m5 0h9.94m4.98 0h9.95m4.98 0h9.95m4.98 0h9.96m4.97 0h9.97m4.97 0h9.96m4.98 0h9.95m4.98 0h9.96m4.98 0h9.95m4.97 0h9.95m4.98 0h9.96m4.97 0h9.96m4.97 0h9.95m4.98 0h9.95m4.98 0h9.95m4.98 0h9.95m5 0h9.95m4.97 0h9.96m4.97 0h9.96m5 0h9.94m4.98 0h9.95m4.98 0h9.95m4.98 0h9.95m4.98 0h9.97m4.97 0h9.96m4.98 0h9.95m4.98 0h9.96m4.98 0h9.95m4.97 0h9.95m4.98 0h9.96m4.97 0h9.96m4.96 0h9.96m4.98 0h9.95m4.98 0h9.95m4.98 0h9.95m5 0h9.95m4.97 0h4.98a6 6 0 0 1 6 6v4.96m0 4.97v9.93m0 4.96v9.93m0 4.96v9.94m0 4.96v9.93m0 4.97v9.92m0 4.97v9.9m0 4.98v9.93m0 4.97v9.93m0 4.96v9.93m0 4.95v9.93m0 4.97v9.92m0 4.97v9.93m0 4.96v9.93m0 4.96v9.93m0 4.96v9.94m0 4.96v9.93m0 4.96v9.92m0 4.97v9.9m0 4.98v9.93m0 4.97v9.93m0 4.96v9.93m0 4.95v9.93m0 4.97v4.96" stroke="#3a414a" fill="none"/><path d="M1515.52-617.52h-.52v-.96h.52z" stroke="#3a414a" stroke-width=".05" fill="#3a414a"/><path d="M2940-256l-7.5-13h15z" stroke="#3a414a" fill="#3a414a"/><path d="M2320-654a6 6 0 0 1 6-6h166.3a6 6 0 0 1 6 6v24.9a6 6 0 0 1-6 6H2326a6 6 0 0 1-6-6z" fill="none"/><g><use xlink:href="#H" transform="matrix(1,0,0,1,2325,-655) translate(0 21.58376736111111)"/></g><defs><path d="M180 0v-1490h510c348 0 508 209 508 474 0 266-160 477-507 477H370V0H180zm190-706h312c236 0 327-133 327-310 0-176-91-307-329-307H370v617" id="V"/><path d="M471 26C259 26 90-98 90-318c0-256 228-303 435-329 202-27 287-16 287-108 0-139-79-219-234-219-161 0-248 86-283 164l-173-57c86-203 278-265 451-265 150 0 419 46 419 395V0H815v-152h-12C765-73 660 26 471 26zm31-159c199 0 310-134 310-271v-155c-30 35-226 55-295 64-131 17-246 59-246 186 0 116 97 176 231 176" id="W"/><path d="M613 24c-304 0-509-231-509-576 0-350 205-580 509-580 216 0 392 114 453 309l-173 49c-33-115-133-197-280-197-223 0-326 196-326 419 0 220 103 415 326 415 150 0 252-85 285-206l172 49C1010-95 832 24 613 24" id="X"/><path d="M158 0v-1490h180v865h22l478-493h223L593-638 1096 0H865L456-523 338-412V0H158" id="Y"/><path d="M611 442c-248 0-391-105-460-228l146-94c47 65 117 165 314 165 178 0 307-82 307-266v-224h-17C863-141 792-18 576-18c-268 0-472-195-472-546 0-346 197-568 476-568 216 0 288 133 326 193h17v-179h175V29c0 289-215 413-487 413zm-5-620c203 0 314-146 314-390 0-237-108-403-314-403-213 0-319 180-319 403 0 230 109 390 319 390" id="Z"/><path d="M628 24c-324 0-524-230-524-574 0-343 198-582 503-582 237 0 487 146 487 559v75H286c9 234 145 362 343 362 132 0 231-58 273-172l174 48C1024-91 857 24 628 24zM287-650h624c-17-190-120-322-304-322-192 0-309 151-320 322" id="aa"/><g id="a"><use transform="matrix(0.010850694444444444,0,0,0.010850694444444444,0,0)" xlink:href="#V"/><use transform="matrix(0.010850694444444444,0,0,0.010850694444444444,14.192708333333332,0)" xlink:href="#W"/><use transform="matrix(0.010850694444444444,0,0,0.010850694444444444,26.671006944444443,0)" xlink:href="#X"/><use transform="matrix(0.010850694444444444,0,0,0.010850694444444444,39.36631944444444,0)" xlink:href="#Y"/><use transform="matrix(0.010850694444444444,0,0,0.010850694444444444,51.5625,0)" xlink:href="#W"/><use transform="matrix(0.010850694444444444,0,0,0.010850694444444444,64.04079861111111,0)" xlink:href="#Z"/><use transform="matrix(0.010850694444444444,0,0,0.010850694444444444,77.66927083333334,0)" xlink:href="#aa"/></g><path d="M135 0v-1490h997v253H440v360h640v249H440v375h694V0H135" id="ab"/><path d="M750-1118v229H516V0H217v-889H20v-229h197v-86c0-238 156-356 363-356 94 0 178 20 215 31l-54 226c-25-7-61-15-100-15-123-3-131 84-125 200h234" id="ac"/><path d="M633 22C291 22 81-200 81-553c0-345 210-579 537-579 292 0 525 185 525 567v84H378c7 183 109 277 260 277 105 0 184-46 216-132l272 51C1071-99 893 22 633 22zM380-669h474c-15-146-94-237-233-237-143 0-229 99-241 237" id="ad"/><path d="M683-1118v229H474v562c0 71 29 104 102 104 23 0 73-7 95-13l43 225C647 9 580 16 520 16 296 16 174-96 174-301v-588H20v-229h154v-266h300v266h209" id="ae"/><g id="b"><use transform="matrix(0.010850694444444444,0,0,0.010850694444444444,0,0)" xlink:href="#ab"/><use transform="matrix(0.010850694444444444,0,0,0.010850694444444444,13.49826388888889,0)" xlink:href="#ac"/><use transform="matrix(0.010850694444444444,0,0,0.010850694444444444,21.419270833333332,0)" xlink:href="#ac"/><use transform="matrix(0.010850694444444444,0,0,0.010850694444444444,29.785156249999993,0)" xlink:href="#ad"/><use transform="matrix(0.010850694444444444,0,0,0.010850694444444444,43.023003472222214,0)" xlink:href="#ae"/></g><path d="M593-100v-404H195v-159h398v-403h169v403h398v159H762v404H593" id="af"/><path d="M157-1118h181V80c1 225-123 350-364 338V252c126 9 184-48 183-172v-1198zm91-183c-68 0-125-53-125-119s57-119 125-119c69 0 126 53 126 119s-57 119-126 119" id="ag"/><path d="M613 24c-304 0-509-231-509-576 0-350 205-580 509-580 305 0 511 230 511 580 0 345-206 576-511 576zm0-161c226 0 329-195 329-415 0-222-103-419-329-419-223 0-326 196-326 419 0 220 103 415 326 415" id="ah"/><path d="M537 14c-226 0-379-139-379-422v-710h180v695c0 172 97 275 253 275 160 0 281-109 281-300v-670h181V0H879v-209C806-46 684 14 537 14" id="ai"/><path d="M158 0v-1118h174v172h12c41-113 157-188 290-188 26 0 70 2 91 3v181c-11-2-60-10-108-10-161 0-279 109-279 260V0H158" id="aj"/><path d="M657 26c-323 0-524-166-541-416h195c15 169 171 246 346 246 202 0 356-106 356-265 5-203-294-238-475-293-239-73-380-191-380-389 0-252 224-419 512-419 294 0 499 171 508 396H992c-17-145-151-228-328-228-193 0-321 102-321 242 0 156 175 211 284 241l149 41c160 44 422 134 422 412 0 244-197 432-541 432" id="ak"/><path d="M218-607c0-325 108-727 258-974h175c-155 315-250 682-250 974 0 265 78 531 250 886H476C306-10 218-315 218-607" id="al"/><path d="M677 24c-213 0-288-135-325-197h-20V0H158v-1490h180v551h14c37-59 106-193 324-193 279 0 474 222 474 576 0 356-194 580-473 580zm-27-161c209 0 317-186 317-421 0-232-105-413-317-413-206 0-314 166-314 413 0 249 111 421 314 421" id="am"/><path d="M295 13c-75 0-135-60-135-135s60-135 135-135 135 60 135 135S370 13 295 13zm0-809c-75 0-135-60-135-135s60-135 135-135 135 60 135 135-60 135-135 135" id="an"/><g id="c"><use transform="matrix(0.010850694444444444,0,0,0.010850694444444444,0,0)" xlink:href="#af"/><use transform="matrix(0.010850694444444444,0,0,0.010850694444444444,14.702690972222221,0)" xlink:href="#ag"/><use transform="matrix(0.010850694444444444,0,0,0.010850694444444444,20.084635416666664,0)" xlink:href="#ah"/><use transform="matrix(0.010850694444444444,0,0,0.010850694444444444,33.40928819444444,0)" xlink:href="#ai"/><use transform="matrix(0.010850694444444444,0,0,0.010850694444444444,46.549479166666664,0)" xlink:href="#aa"/><use transform="matrix(0.010850694444444444,0,0,0.010850694444444444,59.50520833333333,0)" xlink:href="#aj"/><use transform="matrix(0.010850694444444444,0,0,0.010850694444444444,67.87109375,0)" xlink:href="#ak"/><use transform="matrix(0.010850694444444444,0,0,0.010850694444444444,82.12890625,0)" xlink:href="#ai"/><use transform="matrix(0.010850694444444444,0,0,0.010850694444444444,95.26909722222221,0)" xlink:href="#aj"/><use transform="matrix(0.010850694444444444,0,0,0.010850694444444444,103.6349826388889,0)" xlink:href="#al"/><use transform="matrix(0.010850694444444444,0,0,0.010850694444444444,111.7404513888889,0)" xlink:href="#am"/><use transform="matrix(0.010850694444444444,0,0,0.010850694444444444,125.34722222222224,0)" xlink:href="#an"/></g><path d="M180 0v-1490h528c311 0 458 177 458 395 0 191-114 278-244 313v14c139 9 302 137 302 371 0 225-148 397-499 397H180zm190-168h350c232 0 321-102 321-231 0-149-120-277-311-277H370v508zm0-668h328c160 0 286-101 286-255 0-129-87-231-280-231H370v486" id="ao"/><path d="M338-670V0H158v-1118h173l1 207c72-158 192-221 342-221 226 0 378 139 378 422V0H872v-695c0-172-96-275-252-275-161 0-282 109-282 300" id="ap"/><path d="M577 24c-279 0-473-224-473-580 0-354 195-576 474-576 218 0 287 134 324 193h14v-551h180V0H922v-173h-20C865-111 790 24 577 24zm27-161c203 0 314-172 314-421 0-247-108-413-314-413-212 0-317 181-317 413 0 235 108 421 317 421" id="aq"/><path d="M96 279C273-86 346-350 346-607c0-292-95-659-250-974h175c150 246 258 650 258 974 0 297-91 602-258 886H96" id="ar"/><g id="d"><use transform="matrix(0.010850694444444444,0,0,0.010850694444444444,0,0)" xlink:href="#ao"/><use transform="matrix(0.010850694444444444,0,0,0.010850694444444444,14.539930555555555,0)" xlink:href="#W"/><use transform="matrix(0.010850694444444444,0,0,0.010850694444444444,27.018229166666664,0)" xlink:href="#ap"/><use transform="matrix(0.010850694444444444,0,0,0.010850694444444444,40.14756944444444,0)" xlink:href="#aq"/><use transform="matrix(0.010850694444444444,0,0,0.010850694444444444,53.75434027777778,0)" xlink:href="#aa"/><use transform="matrix(0.010850694444444444,0,0,0.010850694444444444,66.92708333333333,0)" xlink:href="#W"/><use transform="matrix(0.010850694444444444,0,0,0.010850694444444444,79.40538194444444,0)" xlink:href="#ai"/><use transform="matrix(0.010850694444444444,0,0,0.010850694444444444,92.54557291666666,0)" xlink:href="#ar"/></g><path d="M115 0v-183l604-853c49-68 106-137 165-205-253 8-513 2-772 4v-253h1133v184L652-468c-53 73-113 147-176 220 253-10 513-3 772-5V0H115" id="as"/><path d="M628 22C291 22 81-210 81-554c0-346 210-578 547-578 336 0 547 232 547 578 0 344-211 576-547 576zm0-236c160 0 242-146 242-341 0-197-82-341-242-341S387-753 387-555c0 195 81 341 241 341" id="at"/><path d="M128 0v-1118h278l12 217c60-163 185-234 319-234 143 0 236 81 288 251 63-172 205-251 359-251 205 0 357 138 357 381V0h-301v-697c0-126-76-187-177-187-114 0-184 79-184 196V0H789v-705c0-109-72-179-174-179-106 0-187 74-187 208V0H128" id="au"/><g id="e"><use transform="matrix(0.010850694444444444,0,0,0.010850694444444444,0,0)" xlink:href="#ab"/><use transform="matrix(0.010850694444444444,0,0,0.010850694444444444,13.49826388888889,0)" xlink:href="#ac"/><use transform="matrix(0.010850694444444444,0,0,0.010850694444444444,21.419270833333332,0)" xlink:href="#ac"/><use transform="matrix(0.010850694444444444,0,0,0.010850694444444444,29.785156249999993,0)" xlink:href="#ad"/><use transform="matrix(0.010850694444444444,0,0,0.010850694444444444,43.023003472222214,0)" xlink:href="#ae"/><use transform="matrix(0.010850694444444444,0,0,0.010850694444444444,51.16102430555556,0)" xlink:href="#as"/><use transform="matrix(0.010850694444444444,0,0,0.010850694444444444,65.91796875,0)" xlink:href="#at"/><use transform="matrix(0.010850694444444444,0,0,0.010850694444444444,79.54644097222223,0)" xlink:href="#at"/><use transform="matrix(0.010850694444444444,0,0,0.010850694444444444,93.17491319444446,0)" xlink:href="#au"/></g><path d="M135 0v-1490h581c339 0 533 192 533 485 0 204-94 351-264 424L1302 0H964L680-532H440V0H135zm305-779h220c186 0 274-77 274-226 0-150-88-233-275-233H440v459" id="av"/><path d="M440 22C227 22 68-92 68-313c0-250 202-322 422-343 195-21 271-24 271-105 0-95-63-149-175-149-116 0-187 57-211 129l-275-46c57-194 237-305 487-305 240 0 474 108 474 379V0H777v-155h-10C713-51 605 22 440 22zm85-211c140 0 238-93 238-211v-121c-37 26-156 42-222 51-111 16-185 59-185 149 0 87 70 132 169 132" id="aw"/><path d="M128 0v-1118h300V0H128zm150-1264c-91 0-165-68-165-154 0-85 74-154 165-154 90 0 165 69 165 154 0 86-75 154-165 154" id="ax"/><path d="M428-647V0H128v-1118h283l4 231c63-156 176-245 348-245 232 0 384 159 384 421V0H847v-659c0-139-76-222-202-222-128 0-217 86-217 234" id="ay"/><g id="f"><use transform="matrix(0.010850694444444444,0,0,0.010850694444444444,0,0)" xlink:href="#ab"/><use transform="matrix(0.010850694444444444,0,0,0.010850694444444444,13.49826388888889,0)" xlink:href="#ac"/><use transform="matrix(0.010850694444444444,0,0,0.010850694444444444,21.419270833333332,0)" xlink:href="#ac"/><use transform="matrix(0.010850694444444444,0,0,0.010850694444444444,29.785156249999993,0)" xlink:href="#ad"/><use transform="matrix(0.010850694444444444,0,0,0.010850694444444444,43.023003472222214,0)" xlink:href="#ae"/><use transform="matrix(0.010850694444444444,0,0,0.010850694444444444,51.21527777777778,0)" xlink:href="#av"/><use transform="matrix(0.010850694444444444,0,0,0.010850694444444444,65.53819444444443,0)" xlink:href="#at"/><use transform="matrix(0.010850694444444444,0,0,0.010850694444444444,79.16666666666666,0)" xlink:href="#ae"/><use transform="matrix(0.010850694444444444,0,0,0.010850694444444444,87.41319444444443,0)" xlink:href="#aw"/><use transform="matrix(0.010850694444444444,0,0,0.010850694444444444,100.31467013888887,0)" xlink:href="#ae"/><use transform="matrix(0.010850694444444444,0,0,0.010850694444444444,108.4526909722222,0)" xlink:href="#ax"/><use transform="matrix(0.010850694444444444,0,0,0.010850694444444444,114.47482638888887,0)" xlink:href="#at"/><use transform="matrix(0.010850694444444444,0,0,0.010850694444444444,128.1032986111111,0)" xlink:href="#ay"/></g><path d="M786 20C389 20 94-260 94-744c0-487 299-766 692-766 339 0 597 194 641 529h-309c-28-162-156-258-326-258-233 0-388 179-388 495 0 323 157 493 387 493 170 0 298-97 328-259h309c-34 277-266 530-642 530" id="az"/><path d="M428-1490V0H128v-1490h300" id="aA"/><path d="M625 442c-280 0-454-114-503-274l258-72c28 63 97 128 243 128 153 0 246-69 246-216v-206h-23C805-108 717-16 536-16 284-16 81-191 81-561c0-378 208-571 456-571 188 0 280 113 321 202h13v-188h295V-9c0 303-226 451-541 451zm5-686c153 0 240-119 240-319 0-198-86-329-240-329-158 0-241 137-241 329 0 195 85 319 241 319" id="aB"/><g id="g"><use transform="matrix(0.010850694444444444,0,0,0.010850694444444444,0,0)" xlink:href="#ab"/><use transform="matrix(0.010850694444444444,0,0,0.010850694444444444,13.49826388888889,0)" xlink:href="#ac"/><use transform="matrix(0.010850694444444444,0,0,0.010850694444444444,21.419270833333332,0)" xlink:href="#ac"/><use transform="matrix(0.010850694444444444,0,0,0.010850694444444444,29.785156249999993,0)" xlink:href="#ad"/><use transform="matrix(0.010850694444444444,0,0,0.010850694444444444,43.023003472222214,0)" xlink:href="#ae"/><use transform="matrix(0.010850694444444444,0,0,0.010850694444444444,51.16102430555556,0)" xlink:href="#az"/><use transform="matrix(0.010850694444444444,0,0,0.010850694444444444,67.59982638888889,0)" xlink:href="#aA"/><use transform="matrix(0.010850694444444444,0,0,0.010850694444444444,73.62196180555556,0)" xlink:href="#ax"/><use transform="matrix(0.010850694444444444,0,0,0.010850694444444444,79.64409722222223,0)" xlink:href="#aB"/><use transform="matrix(0.010850694444444444,0,0,0.010850694444444444,93.68489583333334,0)" xlink:href="#ay"/><use transform="matrix(0.010850694444444444,0,0,0.010850694444444444,107.51953125000001,0)" xlink:href="#at"/><use transform="matrix(0.010850694444444444,0,0,0.010850694444444444,121.14800347222224,0)" xlink:href="#ae"/><use transform="matrix(0.010850694444444444,0,0,0.010850694444444444,129.39453125,0)" xlink:href="#aw"/><use transform="matrix(0.010850694444444444,0,0,0.010850694444444444,142.29600694444446,0)" xlink:href="#ay"/><use transform="matrix(0.010850694444444444,0,0,0.010850694444444444,156.13064236111111,0)" xlink:href="#ae"/></g><path d="M571 0L49-1490h339c138 427 271 775 384 1244 111-471 237-815 371-1244h337L970 0H571" id="aC"/><path d="M513 14c-232 0-385-159-385-421v-711h300v659c0 139 76 222 202 222 127 0 217-86 217-234v-647h301V0H864l-4-232C797-74 683 14 513 14" id="aD"/><g id="h"><use transform="matrix(0.010850694444444444,0,0,0.010850694444444444,0,0)" xlink:href="#ab"/><use transform="matrix(0.010850694444444444,0,0,0.010850694444444444,13.49826388888889,0)" xlink:href="#ac"/><use transform="matrix(0.010850694444444444,0,0,0.010850694444444444,21.419270833333332,0)" xlink:href="#ac"/><use transform="matrix(0.010850694444444444,0,0,0.010850694444444444,29.785156249999993,0)" xlink:href="#ad"/><use transform="matrix(0.010850694444444444,0,0,0.010850694444444444,43.023003472222214,0)" xlink:href="#ae"/><use transform="matrix(0.010850694444444444,0,0,0.010850694444444444,51.06336805555556,0)" xlink:href="#aC"/><use transform="matrix(0.010850694444444444,0,0,0.010850694444444444,66.34114583333333,0)" xlink:href="#aw"/><use transform="matrix(0.010850694444444444,0,0,0.010850694444444444,79.24262152777777,0)" xlink:href="#aB"/><use transform="matrix(0.010850694444444444,0,0,0.010850694444444444,93.28342013888889,0)" xlink:href="#aD"/><use transform="matrix(0.010850694444444444,0,0,0.010850694444444444,107.11805555555556,0)" xlink:href="#ad"/></g><path d="M135 0v-1490h468l242 684c30 94 76 293 111 455 34-161 80-360 110-455l238-684h470V0h-307c0-447-3-765 11-1227-122 503-246 788-395 1227H826C676-435 552-717 427-1215c15 453 11 775 11 1215H135" id="aE"/><path d="M628 22C291 22 81-210 81-554c0-346 210-578 547-578 265 0 455 142 497 372l-279 52c-25-116-99-188-215-188-160 0-244 139-244 341 0 200 84 341 244 341 116 0 193-74 217-195l279 51C1085-123 896 22 628 22" id="aF"/><path d="M428-647V0H128v-1490h294v586c65-146 175-228 341-228 232 0 385 159 385 421V0H847v-659c0-139-76-222-202-222-128 0-217 86-217 234" id="aG"/><path d="M49 0l509-1490h400L1480 0h-339l-115-346H497L386 0H49zm524-585h374c-75-213-124-402-192-666-66 268-110 453-182 666" id="aH"/><path d="M128 0v-1118h290v195h12c54-169 184-238 367-200v268c-27-8-86-15-130-15-138 0-239 95-239 234V0H128" id="aI"/><g id="i"><use transform="matrix(0.010850694444444444,0,0,0.010850694444444444,0,0)" xlink:href="#ab"/><use transform="matrix(0.010850694444444444,0,0,0.010850694444444444,13.49826388888889,0)" xlink:href="#ac"/><use transform="matrix(0.010850694444444444,0,0,0.010850694444444444,21.419270833333332,0)" xlink:href="#ac"/><use transform="matrix(0.010850694444444444,0,0,0.010850694444444444,29.785156249999993,0)" xlink:href="#ad"/><use transform="matrix(0.010850694444444444,0,0,0.010850694444444444,43.023003472222214,0)" xlink:href="#ae"/><use transform="matrix(0.010850694444444444,0,0,0.010850694444444444,51.21527777777778,0)" xlink:href="#aE"/><use transform="matrix(0.010850694444444444,0,0,0.010850694444444444,71.91840277777777,0)" xlink:href="#aw"/><use transform="matrix(0.010850694444444444,0,0,0.010850694444444444,84.81987847222221,0)" xlink:href="#aF"/><use transform="matrix(0.010850694444444444,0,0,0.010850694444444444,97.89496527777777,0)" xlink:href="#aG"/><use transform="matrix(0.010850694444444444,0,0,0.010850694444444444,111.72960069444444,0)" xlink:href="#ax"/><use transform="matrix(0.010850694444444444,0,0,0.010850694444444444,117.7517361111111,0)" xlink:href="#ay"/><use transform="matrix(0.010850694444444444,0,0,0.010850694444444444,131.58637152777777,0)" xlink:href="#ad"/><use transform="matrix(0.010850694444444444,0,0,0.010850694444444444,144.07552083333334,0)" xlink:href="#aH"/><use transform="matrix(0.010850694444444444,0,0,0.010850694444444444,160.66623263888889,0)" xlink:href="#ab"/><use transform="matrix(0.010850694444444444,0,0,0.010850694444444444,174.16449652777777,0)" xlink:href="#aF"/><use transform="matrix(0.010850694444444444,0,0,0.010850694444444444,187.23958333333331,0)" xlink:href="#aI"/><use transform="matrix(0.010850694444444444,0,0,0.010850694444444444,196.45182291666663,0)" xlink:href="#ax"/><use transform="matrix(0.010850694444444444,0,0,0.010850694444444444,202.4739583333333,0)" xlink:href="#aI"/><use transform="matrix(0.010850694444444444,0,0,0.010850694444444444,210.98090277777774,0)" xlink:href="#ad"/></g><g id="j"><use transform="matrix(0.010850694444444444,0,0,0.010850694444444444,0,0)" xlink:href="#ab"/><use transform="matrix(0.010850694444444444,0,0,0.010850694444444444,13.49826388888889,0)" xlink:href="#ac"/><use transform="matrix(0.010850694444444444,0,0,0.010850694444444444,21.419270833333332,0)" xlink:href="#ac"/><use transform="matrix(0.010850694444444444,0,0,0.010850694444444444,29.785156249999993,0)" xlink:href="#ad"/><use transform="matrix(0.010850694444444444,0,0,0.010850694444444444,43.023003472222214,0)" xlink:href="#ae"/><use transform="matrix(0.010850694444444444,0,0,0.010850694444444444,51.21527777777778,0)" xlink:href="#ab"/><use transform="matrix(0.010850694444444444,0,0,0.010850694444444444,64.71354166666666,0)" xlink:href="#ae"/><use transform="matrix(0.010850694444444444,0,0,0.010850694444444444,72.85156249999999,0)" xlink:href="#ax"/><use transform="matrix(0.010850694444444444,0,0,0.010850694444444444,78.87369791666666,0)" xlink:href="#aI"/><use transform="matrix(0.010850694444444444,0,0,0.010850694444444444,87.3806423611111,0)" xlink:href="#ad"/><use transform="matrix(0.010850694444444444,0,0,0.010850694444444444,100.61848958333331,0)" xlink:href="#au"/><use transform="matrix(0.010850694444444444,0,0,0.010850694444444444,120.89843749999997,0)" xlink:href="#ad"/><use transform="matrix(0.010850694444444444,0,0,0.010850694444444444,134.1362847222222,0)" xlink:href="#ay"/><use transform="matrix(0.010850694444444444,0,0,0.010850694444444444,147.97092013888886,0)" xlink:href="#ae"/></g><g id="k"><use transform="matrix(0.010850694444444444,0,0,0.010850694444444444,0,0)" xlink:href="#ao"/><use transform="matrix(0.010850694444444444,0,0,0.010850694444444444,14.539930555555555,0)" xlink:href="#W"/><use transform="matrix(0.010850694444444444,0,0,0.010850694444444444,27.018229166666664,0)" xlink:href="#ap"/><use transform="matrix(0.010850694444444444,0,0,0.010850694444444444,40.14756944444444,0)" xlink:href="#aq"/><use transform="matrix(0.010850694444444444,0,0,0.010850694444444444,53.75434027777778,0)" xlink:href="#aa"/><use transform="matrix(0.010850694444444444,0,0,0.010850694444444444,66.92708333333333,0)" xlink:href="#W"/><use transform="matrix(0.010850694444444444,0,0,0.010850694444444444,79.40538194444444,0)" xlink:href="#ai"/><use transform="matrix(0.010850694444444444,0,0,0.010850694444444444,92.54557291666666,0)" xlink:href="#ar"/></g><path d="M798-719v166H144v-166h654" id="aJ"/><path d="M538 24C308 24 148-78 108-271l171-41c32 123 123 178 257 178 156 0 256-77 256-169 0-77-54-128-164-154l-186-44c-203-48-300-148-300-305 0-192 176-326 414-326 230 0 351 112 402 269l-163 42c-31-80-94-158-238-158-133 0-233 69-233 162 0 83 57 129 188 160l169 40c203 48 298 149 298 302 0 196-179 339-441 339" id="aK"/><path d="M158 418v-1536h174v179h20c37-59 106-193 324-193 279 0 474 222 474 576 0 356-194 580-473 580-213 0-288-135-325-197h-14v591H158zm492-555c209 0 317-186 317-421 0-232-105-413-317-413-206 0-314 166-314 413 0 249 111 421 314 421" id="aL"/><path d="M598-1118v154H368v674c0 100 37 144 132 144 23 0 62-6 92-12L629-6c-37 13-88 20-134 20-193 0-307-107-307-290v-688H20v-154h168v-266h180v266h230" id="aM"/><path d="M65 0l393-574-370-544h210c88 136 192 297 267 435 67-142 176-302 264-435h206L661-564 1053 0H844c-94-144-206-310-287-458C484-308 366-142 273 0H65" id="aN"/><g id="l"><use transform="matrix(0.010850694444444444,0,0,0.010850694444444444,0,0)" xlink:href="#aJ"/><use transform="matrix(0.010850694444444444,0,0,0.010850694444444444,10.221354166666666,0)" xlink:href="#aa"/><use transform="matrix(0.010850694444444444,0,0,0.010850694444444444,23.177083333333332,0)" xlink:href="#aK"/><use transform="matrix(0.010850694444444444,0,0,0.010850694444444444,34.90668402777778,0)" xlink:href="#aL"/><use transform="matrix(0.010850694444444444,0,0,0.010850694444444444,48.73046875,0)" xlink:href="#W"/><use transform="matrix(0.010850694444444444,0,0,0.010850694444444444,61.20876736111112,0)" xlink:href="#X"/><use transform="matrix(0.010850694444444444,0,0,0.010850694444444444,73.90407986111111,0)" xlink:href="#aa"/><use transform="matrix(0.010850694444444444,0,0,0.010850694444444444,86.85980902777779,0)" xlink:href="#aj"/><use transform="matrix(0.010850694444444444,0,0,0.010850694444444444,95.22569444444446,0)" xlink:href="#ak"/><use transform="matrix(0.010850694444444444,0,0,0.010850694444444444,109.48350694444446,0)" xlink:href="#ai"/><use transform="matrix(0.010850694444444444,0,0,0.010850694444444444,122.62369791666669,0)" xlink:href="#aj"/><use transform="matrix(0.010850694444444444,0,0,0.010850694444444444,130.98958333333334,0)" xlink:href="#al"/><use transform="matrix(0.010850694444444444,0,0,0.010850694444444444,139.09505208333334,0)" xlink:href="#aM"/><use transform="matrix(0.010850694444444444,0,0,0.010850694444444444,146.14800347222223,0)" xlink:href="#aa"/><use transform="matrix(0.010850694444444444,0,0,0.010850694444444444,158.60460069444443,0)" xlink:href="#aN"/><use transform="matrix(0.010850694444444444,0,0,0.010850694444444444,171.1697048611111,0)" xlink:href="#aM"/><use transform="matrix(0.010850694444444444,0,0,0.010850694444444444,178.22265624999994,0)" xlink:href="#aa"/></g><use transform="matrix(0.010850694444444444,0,0,0.010850694444444444,0,0)" xlink:href="#an" id="m"/><path d="M158 0v-1118h180V0H158zm91-1301c-68 0-125-53-125-119s57-119 125-119c69 0 126 53 126 119s-57 119-126 119" id="aO"/><path d="M128 359l88-567h206L266 359H128" id="aP"/><g id="n"><use transform="matrix(0.010850694444444444,0,0,0.010850694444444444,0,0)" xlink:href="#ak"/><use transform="matrix(0.010850694444444444,0,0,0.010850694444444444,14.2578125,0)" xlink:href="#aM"/><use transform="matrix(0.010850694444444444,0,0,0.010850694444444444,21.52777777777778,0)" xlink:href="#aj"/><use transform="matrix(0.010850694444444444,0,0,0.010850694444444444,30.240885416666664,0)" xlink:href="#aO"/><use transform="matrix(0.010850694444444444,0,0,0.010850694444444444,35.62282986111111,0)" xlink:href="#ap"/><use transform="matrix(0.010850694444444444,0,0,0.010850694444444444,48.752170138888886,0)" xlink:href="#Z"/><use transform="matrix(0.010850694444444444,0,0,0.010850694444444444,62.38064236111111,0)" xlink:href="#aP"/></g><g id="o"><use transform="matrix(0.010850694444444444,0,0,0.010850694444444444,0,0)" xlink:href="#ap"/><use transform="matrix(0.010850694444444444,0,0,0.010850694444444444,13.129340277777777,0)" xlink:href="#am"/></g><g id="p"><use transform="matrix(0.010850694444444444,0,0,0.010850694444444444,0,0)" xlink:href="#aO"/><use transform="matrix(0.010850694444444444,0,0,0.010850694444444444,5.381944444444445,0)" xlink:href="#ap"/><use transform="matrix(0.010850694444444444,0,0,0.010850694444444444,18.51128472222222,0)" xlink:href="#aM"/><use transform="matrix(0.010850694444444444,0,0,0.010850694444444444,25.78125,0)" xlink:href="#ar"/></g><g id="q"><use transform="matrix(0.010850694444444444,0,0,0.010850694444444444,0,0)" xlink:href="#ak"/><use transform="matrix(0.010850694444444444,0,0,0.010850694444444444,14.2578125,0)" xlink:href="#aM"/><use transform="matrix(0.010850694444444444,0,0,0.010850694444444444,21.52777777777778,0)" xlink:href="#aj"/><use transform="matrix(0.010850694444444444,0,0,0.010850694444444444,30.240885416666664,0)" xlink:href="#aO"/><use transform="matrix(0.010850694444444444,0,0,0.010850694444444444,35.62282986111111,0)" xlink:href="#ap"/><use transform="matrix(0.010850694444444444,0,0,0.010850694444444444,48.752170138888886,0)" xlink:href="#Z"/></g><path d="M572 22C302 22 117-98 78-306l279-48c29 105 101 156 224 156 114 0 185-48 185-115 0-118-228-130-337-155-215-49-322-150-322-317 0-215 187-347 470-347 265 0 424 116 466 298l-266 47c-24-76-87-130-196-130-98 0-174 46-174 113 0 56 38 95 144 117l201 40c216 44 320 143 320 302 0 220-207 367-500 367" id="aQ"/><path d="M754 19C571 19 479-89 437-179h-14V0H128v-1490h300v560h9c41-89 129-202 319-202 248 0 453 193 453 575 0 372-197 576-455 576zm-92-241c156 0 240-139 240-336 0-196-83-334-240-334-154 0-241 131-241 334 0 202 88 336 241 336" id="aR"/><g id="r"><use transform="matrix(0.010850694444444444,0,0,0.010850694444444444,0,0)" xlink:href="#ab"/><use transform="matrix(0.010850694444444444,0,0,0.010850694444444444,13.49826388888889,0)" xlink:href="#ac"/><use transform="matrix(0.010850694444444444,0,0,0.010850694444444444,21.419270833333332,0)" xlink:href="#ac"/><use transform="matrix(0.010850694444444444,0,0,0.010850694444444444,29.785156249999993,0)" xlink:href="#ad"/><use transform="matrix(0.010850694444444444,0,0,0.010850694444444444,43.023003472222214,0)" xlink:href="#ae"/><use transform="matrix(0.010850694444444444,0,0,0.010850694444444444,51.16102430555556,0)" xlink:href="#aH"/><use transform="matrix(0.010850694444444444,0,0,0.010850694444444444,67.50217013888889,0)" xlink:href="#aQ"/><use transform="matrix(0.010850694444444444,0,0,0.010850694444444444,79.94791666666666,0)" xlink:href="#aQ"/><use transform="matrix(0.010850694444444444,0,0,0.010850694444444444,92.39366319444441,0)" xlink:href="#at"/><use transform="matrix(0.010850694444444444,0,0,0.010850694444444444,106.02213541666666,0)" xlink:href="#au"/><use transform="matrix(0.010850694444444444,0,0,0.010850694444444444,126.30208333333331,0)" xlink:href="#aR"/><use transform="matrix(0.010850694444444444,0,0,0.010850694444444444,140.3103298611111,0)" xlink:href="#aI"/><use transform="matrix(0.010850694444444444,0,0,0.010850694444444444,149.5225694444444,0)" xlink:href="#ax"/><use transform="matrix(0.010850694444444444,0,0,0.010850694444444444,155.54470486111106,0)" xlink:href="#aQ"/><use transform="matrix(0.010850694444444444,0,0,0.010850694444444444,167.99045138888883,0)" xlink:href="#aQ"/><use transform="matrix(0.010850694444444444,0,0,0.010850694444444444,180.43619791666657,0)" xlink:href="#ad"/><use transform="matrix(0.010850694444444444,0,0,0.010850694444444444,193.67404513888883,0)" xlink:href="#au"/><use transform="matrix(0.010850694444444444,0,0,0.010850694444444444,213.95399305555546,0)" xlink:href="#ad"/><use transform="matrix(0.010850694444444444,0,0,0.010850694444444444,227.19184027777774,0)" xlink:href="#ay"/><use transform="matrix(0.010850694444444444,0,0,0.010850694444444444,241.02647569444434,0)" xlink:href="#ae"/></g><g id="s"><use transform="matrix(0.010850694444444444,0,0,0.010850694444444444,0,0)" xlink:href="#ao"/><use transform="matrix(0.010850694444444444,0,0,0.010850694444444444,14.539930555555555,0)" xlink:href="#W"/><use transform="matrix(0.010850694444444444,0,0,0.010850694444444444,27.018229166666664,0)" xlink:href="#ap"/><use transform="matrix(0.010850694444444444,0,0,0.010850694444444444,40.14756944444444,0)" xlink:href="#aq"/><use transform="matrix(0.010850694444444444,0,0,0.010850694444444444,53.75434027777778,0)" xlink:href="#aa"/><use transform="matrix(0.010850694444444444,0,0,0.010850694444444444,66.92708333333333,0)" xlink:href="#W"/><use transform="matrix(0.010850694444444444,0,0,0.010850694444444444,79.40538194444444,0)" xlink:href="#ai"/></g><path d="M135 0v-1490h591c327 0 492 160 492 383 0 177-115 286-268 320v15c168 8 326 140 326 361 0 236-176 411-512 411H135zm305-251h264c179 0 258-76 258-189 0-125-97-215-250-215H440v404zm0-613h241c131 0 228-74 228-194 0-109-79-183-222-183H440v377" id="aS"/><path d="M537 19C279 19 81-185 81-557c0-382 206-575 454-575 190 0 278 113 318 202h10v-560h300V0H868v-179h-15C812-89 719 19 537 19zm92-241c153 0 240-134 240-336 0-203-86-334-240-334-158 0-240 138-240 334 0 197 84 336 240 336" id="aT"/><g id="t"><use transform="matrix(0.010850694444444444,0,0,0.010850694444444444,0,0)" xlink:href="#aS"/><use transform="matrix(0.010850694444444444,0,0,0.010850694444444444,14.702690972222221,0)" xlink:href="#aw"/><use transform="matrix(0.010850694444444444,0,0,0.010850694444444444,27.604166666666664,0)" xlink:href="#ay"/><use transform="matrix(0.010850694444444444,0,0,0.010850694444444444,41.43880208333333,0)" xlink:href="#aT"/><use transform="matrix(0.010850694444444444,0,0,0.010850694444444444,55.44704861111111,0)" xlink:href="#ad"/><use transform="matrix(0.010850694444444444,0,0,0.010850694444444444,68.90190972222221,0)" xlink:href="#aw"/><use transform="matrix(0.010850694444444444,0,0,0.010850694444444444,81.80338541666666,0)" xlink:href="#aD"/></g><path d="M158 0v-1118h175l1 205c55-151 181-225 313-225 147 0 245 90 285 228 53-141 190-228 352-228 194 0 352 125 352 384V0h-181v-749c0-161-105-225-225-225-151 0-243 103-243 244V0H807v-767c0-124-93-207-219-207-131 0-250 92-250 270V0H158" id="aU"/><g id="u"><use transform="matrix(0.010850694444444444,0,0,0.010850694444444444,0,0)" xlink:href="#af"/><use transform="matrix(0.010850694444444444,0,0,0.010850694444444444,14.702690972222221,0)" xlink:href="#aU"/><use transform="matrix(0.010850694444444444,0,0,0.010850694444444444,34.16883680555556,0)" xlink:href="#aa"/><use transform="matrix(0.010850694444444444,0,0,0.010850694444444444,47.12456597222222,0)" xlink:href="#aK"/><use transform="matrix(0.010850694444444444,0,0,0.010850694444444444,58.854166666666664,0)" xlink:href="#aK"/><use transform="matrix(0.010850694444444444,0,0,0.010850694444444444,70.58376736111111,0)" xlink:href="#W"/><use transform="matrix(0.010850694444444444,0,0,0.010850694444444444,83.06206597222223,0)" xlink:href="#Z"/><use transform="matrix(0.010850694444444444,0,0,0.010850694444444444,96.69053819444446,0)" xlink:href="#aa"/></g><g id="v"><use transform="matrix(0.010850694444444444,0,0,0.010850694444444444,0,0)" xlink:href="#ak"/><use transform="matrix(0.010850694444444444,0,0,0.010850694444444444,14.2578125,0)" xlink:href="#aM"/><use transform="matrix(0.010850694444444444,0,0,0.010850694444444444,21.52777777777778,0)" xlink:href="#aj"/><use transform="matrix(0.010850694444444444,0,0,0.010850694444444444,30.240885416666664,0)" xlink:href="#aO"/><use transform="matrix(0.010850694444444444,0,0,0.010850694444444444,35.62282986111111,0)" xlink:href="#ap"/><use transform="matrix(0.010850694444444444,0,0,0.010850694444444444,48.752170138888886,0)" xlink:href="#Z"/></g><g id="w"><use transform="matrix(0.010850694444444444,0,0,0.010850694444444444,0,0)" xlink:href="#af"/><use transform="matrix(0.010850694444444444,0,0,0.010850694444444444,14.702690972222221,0)" xlink:href="#aj"/><use transform="matrix(0.010850694444444444,0,0,0.010850694444444444,22.69965277777778,0)" xlink:href="#ah"/><use transform="matrix(0.010850694444444444,0,0,0.010850694444444444,36.02430555555556,0)" xlink:href="#aM"/><use transform="matrix(0.010850694444444444,0,0,0.010850694444444444,43.40277777777778,0)" xlink:href="#W"/><use transform="matrix(0.010850694444444444,0,0,0.010850694444444444,55.881076388888886,0)" xlink:href="#aM"/><use transform="matrix(0.010850694444444444,0,0,0.010850694444444444,63.151041666666664,0)" xlink:href="#aO"/><use transform="matrix(0.010850694444444444,0,0,0.010850694444444444,68.53298611111111,0)" xlink:href="#ah"/><use transform="matrix(0.010850694444444444,0,0,0.010850694444444444,81.85763888888889,0)" xlink:href="#ap"/></g><path d="M338-1490V0H158v-1490h180" id="aV"/><g id="x"><use transform="matrix(0.010850694444444444,0,0,0.010850694444444444,0,0)" xlink:href="#aq"/><use transform="matrix(0.010850694444444444,0,0,0.010850694444444444,13.606770833333332,0)" xlink:href="#ah"/><use transform="matrix(0.010850694444444444,0,0,0.010850694444444444,26.931423611111104,0)" xlink:href="#ai"/><use transform="matrix(0.010850694444444444,0,0,0.010850694444444444,40.07161458333333,0)" xlink:href="#am"/><use transform="matrix(0.010850694444444444,0,0,0.010850694444444444,53.67838541666666,0)" xlink:href="#aV"/><use transform="matrix(0.010850694444444444,0,0,0.010850694444444444,59.0603298611111,0)" xlink:href="#aa"/></g><g id="y"><use transform="matrix(0.010850694444444444,0,0,0.010850694444444444,0,0)" xlink:href="#af"/><use transform="matrix(0.010850694444444444,0,0,0.010850694444444444,14.702690972222221,0)" xlink:href="#am"/><use transform="matrix(0.010850694444444444,0,0,0.010850694444444444,28.526475694444443,0)" xlink:href="#W"/><use transform="matrix(0.010850694444444444,0,0,0.010850694444444444,41.00477430555556,0)" xlink:href="#X"/><use transform="matrix(0.010850694444444444,0,0,0.010850694444444444,53.70008680555556,0)" xlink:href="#Y"/><use transform="matrix(0.010850694444444444,0,0,0.010850694444444444,65.39713541666667,0)" xlink:href="#Z"/><use transform="matrix(0.010850694444444444,0,0,0.010850694444444444,79.02560763888889,0)" xlink:href="#aj"/><use transform="matrix(0.010850694444444444,0,0,0.010850694444444444,87.02256944444444,0)" xlink:href="#ah"/><use transform="matrix(0.010850694444444444,0,0,0.010850694444444444,100.34722222222221,0)" xlink:href="#ai"/><use transform="matrix(0.010850694444444444,0,0,0.010850694444444444,113.48741319444441,0)" xlink:href="#ap"/><use transform="matrix(0.010850694444444444,0,0,0.010850694444444444,126.6167534722222,0)" xlink:href="#aq"/></g><path d="M481 0L54-1118h197c107 314 236 620 325 951 87-331 217-637 324-951h197L670 0H481" id="aW"/><path d="M295 13c-75 0-135-60-135-135s60-135 135-135 135 60 135 135S370 13 295 13" id="aX"/><path d="M409 0L70-1118h191c89 329 165 560 243 925 75-353 154-601 240-925h192c85 325 161 564 235 922 77-354 157-598 244-922h191L1267 0h-179c-86-307-176-590-250-913C763-588 675-308 588 0H409" id="aY"/><path d="M783 20c-382 0-661-292-661-764 0-473 279-766 661-766 302 0 548 182 601 489h-190c-42-204-217-313-411-313-268 0-476 208-476 590 0 381 209 588 476 588 195 0 369-110 411-313h190c-52 303-296 489-601 489" id="aZ"/><g id="z"><use transform="matrix(0.010850694444444444,0,0,0.010850694444444444,0,0)" xlink:href="#ag"/><use transform="matrix(0.010850694444444444,0,0,0.010850694444444444,5.381944444444445,0)" xlink:href="#W"/><use transform="matrix(0.010850694444444444,0,0,0.010850694444444444,17.53472222222222,0)" xlink:href="#aW"/><use transform="matrix(0.010850694444444444,0,0,0.010850694444444444,29.915364583333336,0)" xlink:href="#W"/><use transform="matrix(0.010850694444444444,0,0,0.010850694444444444,42.39366319444444,0)" xlink:href="#aX"/><use transform="matrix(0.010850694444444444,0,0,0.010850694444444444,48.795572916666664,0)" xlink:href="#W"/><use transform="matrix(0.010850694444444444,0,0,0.010850694444444444,61.27387152777778,0)" xlink:href="#aY"/><use transform="matrix(0.010850694444444444,0,0,0.010850694444444444,79.45963541666666,0)" xlink:href="#aM"/><use transform="matrix(0.010850694444444444,0,0,0.010850694444444444,86.72960069444443,0)" xlink:href="#aX"/><use transform="matrix(0.010850694444444444,0,0,0.010850694444444444,92.15494791666666,0)" xlink:href="#aZ"/><use transform="matrix(0.010850694444444444,0,0,0.010850694444444444,108.38758680555556,0)" xlink:href="#ah"/><use transform="matrix(0.010850694444444444,0,0,0.010850694444444444,121.71223958333331,0)" xlink:href="#aV"/><use transform="matrix(0.010850694444444444,0,0,0.010850694444444444,127.09418402777776,0)" xlink:href="#ah"/><use transform="matrix(0.010850694444444444,0,0,0.010850694444444444,140.41883680555554,0)" xlink:href="#aj"/></g><path d="M678-1118v154H420V0H240v-964H20v-154h220v-149c0-194 155-293 318-293 85 0 141 18 168 30l-50 154c-19-6-47-17-97-17-111 0-159 58-159 166v109h258" id="ba"/><g id="A"><use transform="matrix(0.010850694444444444,0,0,0.010850694444444444,0,0)" xlink:href="#af"/><use transform="matrix(0.010850694444444444,0,0,0.010850694444444444,14.702690972222221,0)" xlink:href="#ba"/><use transform="matrix(0.010850694444444444,0,0,0.010850694444444444,22.276475694444443,0)" xlink:href="#ah"/><use transform="matrix(0.010850694444444444,0,0,0.010850694444444444,35.60112847222222,0)" xlink:href="#aj"/><use transform="matrix(0.010850694444444444,0,0,0.010850694444444444,43.59809027777777,0)" xlink:href="#aa"/><use transform="matrix(0.010850694444444444,0,0,0.010850694444444444,56.553819444444436,0)" xlink:href="#Z"/><use transform="matrix(0.010850694444444444,0,0,0.010850694444444444,70.18229166666666,0)" xlink:href="#aj"/><use transform="matrix(0.010850694444444444,0,0,0.010850694444444444,78.17925347222221,0)" xlink:href="#ah"/><use transform="matrix(0.010850694444444444,0,0,0.010850694444444444,91.50390624999997,0)" xlink:href="#ai"/><use transform="matrix(0.010850694444444444,0,0,0.010850694444444444,104.6440972222222,0)" xlink:href="#ap"/><use transform="matrix(0.010850694444444444,0,0,0.010850694444444444,117.77343749999997,0)" xlink:href="#aq"/></g><g id="B"><use transform="matrix(0.010850694444444444,0,0,0.010850694444444444,0,0)" xlink:href="#ag"/><use transform="matrix(0.010850694444444444,0,0,0.010850694444444444,5.381944444444445,0)" xlink:href="#W"/><use transform="matrix(0.010850694444444444,0,0,0.010850694444444444,17.53472222222222,0)" xlink:href="#aW"/><use transform="matrix(0.010850694444444444,0,0,0.010850694444444444,29.915364583333336,0)" xlink:href="#W"/><use transform="matrix(0.010850694444444444,0,0,0.010850694444444444,42.39366319444444,0)" xlink:href="#aX"/><use transform="matrix(0.010850694444444444,0,0,0.010850694444444444,48.795572916666664,0)" xlink:href="#W"/><use transform="matrix(0.010850694444444444,0,0,0.010850694444444444,61.27387152777778,0)" xlink:href="#aY"/><use transform="matrix(0.010850694444444444,0,0,0.010850694444444444,79.45963541666666,0)" xlink:href="#aj"/><use transform="matrix(0.010850694444444444,0,0,0.010850694444444444,86.43663194444444,0)" xlink:href="#aX"/><use transform="matrix(0.010850694444444444,0,0,0.010850694444444444,91.86197916666666,0)" xlink:href="#aZ"/><use transform="matrix(0.010850694444444444,0,0,0.010850694444444444,108.09461805555556,0)" xlink:href="#ah"/><use transform="matrix(0.010850694444444444,0,0,0.010850694444444444,121.41927083333333,0)" xlink:href="#aV"/><use transform="matrix(0.010850694444444444,0,0,0.010850694444444444,126.80121527777777,0)" xlink:href="#ah"/><use transform="matrix(0.010850694444444444,0,0,0.010850694444444444,140.12586805555554,0)" xlink:href="#aj"/></g><g id="C"><use transform="matrix(0.010850694444444444,0,0,0.010850694444444444,0,0)" xlink:href="#af"/><use transform="matrix(0.010850694444444444,0,0,0.010850694444444444,14.702690972222221,0)" xlink:href="#ba"/><use transform="matrix(0.010850694444444444,0,0,0.010850694444444444,22.276475694444443,0)" xlink:href="#ah"/><use transform="matrix(0.010850694444444444,0,0,0.010850694444444444,35.60112847222222,0)" xlink:href="#ap"/><use transform="matrix(0.010850694444444444,0,0,0.010850694444444444,48.73046875,0)" xlink:href="#aM"/></g><path d="M180 0v-1490h901v168H370v510h643v168H370V0H180" id="bb"/><g id="D"><use transform="matrix(0.010850694444444444,0,0,0.010850694444444444,0,0)" xlink:href="#ag"/><use transform="matrix(0.010850694444444444,0,0,0.010850694444444444,5.381944444444445,0)" xlink:href="#W"/><use transform="matrix(0.010850694444444444,0,0,0.010850694444444444,17.53472222222222,0)" xlink:href="#aW"/><use transform="matrix(0.010850694444444444,0,0,0.010850694444444444,29.915364583333336,0)" xlink:href="#W"/><use transform="matrix(0.010850694444444444,0,0,0.010850694444444444,42.39366319444444,0)" xlink:href="#aX"/><use transform="matrix(0.010850694444444444,0,0,0.010850694444444444,48.795572916666664,0)" xlink:href="#W"/><use transform="matrix(0.010850694444444444,0,0,0.010850694444444444,61.27387152777778,0)" xlink:href="#aY"/><use transform="matrix(0.010850694444444444,0,0,0.010850694444444444,79.45963541666666,0)" xlink:href="#aM"/><use transform="matrix(0.010850694444444444,0,0,0.010850694444444444,86.72960069444443,0)" xlink:href="#aX"/><use transform="matrix(0.010850694444444444,0,0,0.010850694444444444,93.13151041666666,0)" xlink:href="#bb"/><use transform="matrix(0.010850694444444444,0,0,0.010850694444444444,105.37109374999997,0)" xlink:href="#ah"/><use transform="matrix(0.010850694444444444,0,0,0.010850694444444444,118.69574652777776,0)" xlink:href="#ap"/><use transform="matrix(0.010850694444444444,0,0,0.010850694444444444,131.82508680555554,0)" xlink:href="#aM"/></g><g id="E"><use transform="matrix(0.010850694444444444,0,0,0.010850694444444444,0,0)" xlink:href="#af"/><use transform="matrix(0.010850694444444444,0,0,0.010850694444444444,14.702690972222221,0)" xlink:href="#ao"/><use transform="matrix(0.010850694444444444,0,0,0.010850694444444444,29.242621527777775,0)" xlink:href="#W"/><use transform="matrix(0.010850694444444444,0,0,0.010850694444444444,41.720920138888886,0)" xlink:href="#ap"/><use transform="matrix(0.010850694444444444,0,0,0.010850694444444444,54.850260416666664,0)" xlink:href="#aq"/><use transform="matrix(0.010850694444444444,0,0,0.010850694444444444,68.45703125,0)" xlink:href="#aa"/><use transform="matrix(0.010850694444444444,0,0,0.010850694444444444,81.62977430555556,0)" xlink:href="#W"/><use transform="matrix(0.010850694444444444,0,0,0.010850694444444444,94.10807291666666,0)" xlink:href="#ai"/><use transform="matrix(0.010850694444444444,0,0,0.010850694444444444,107.24826388888889,0)" xlink:href="#al"/><use transform="matrix(0.010850694444444444,0,0,0.010850694444444444,115.35373263888889,0)" xlink:href="#ar"/></g><g id="F"><use transform="matrix(0.010850694444444444,0,0,0.010850694444444444,0,0)" xlink:href="#af"/><use transform="matrix(0.010850694444444444,0,0,0.010850694444444444,14.702690972222221,0)" xlink:href="#aK"/><use transform="matrix(0.010850694444444444,0,0,0.010850694444444444,26.432291666666664,0)" xlink:href="#aV"/><use transform="matrix(0.010850694444444444,0,0,0.010850694444444444,31.814236111111104,0)" xlink:href="#aa"/><use transform="matrix(0.010850694444444444,0,0,0.010850694444444444,44.76996527777778,0)" xlink:href="#aa"/><use transform="matrix(0.010850694444444444,0,0,0.010850694444444444,57.725694444444436,0)" xlink:href="#aL"/><use transform="matrix(0.010850694444444444,0,0,0.010850694444444444,71.33246527777777,0)" xlink:href="#al"/><use transform="matrix(0.010850694444444444,0,0,0.010850694444444444,79.43793402777777,0)" xlink:href="#aU"/><use transform="matrix(0.010850694444444444,0,0,0.010850694444444444,98.90407986111111,0)" xlink:href="#aO"/><use transform="matrix(0.010850694444444444,0,0,0.010850694444444444,104.28602430555556,0)" xlink:href="#aV"/><use transform="matrix(0.010850694444444444,0,0,0.010850694444444444,109.66796874999997,0)" xlink:href="#aV"/><use transform="matrix(0.010850694444444444,0,0,0.010850694444444444,115.04991319444441,0)" xlink:href="#aO"/><use transform="matrix(0.010850694444444444,0,0,0.010850694444444444,120.43185763888887,0)" xlink:href="#aK"/></g><g id="G"><use transform="matrix(0.010850694444444444,0,0,0.010850694444444444,0,0)" xlink:href="#aO"/><use transform="matrix(0.010850694444444444,0,0,0.010850694444444444,5.381944444444445,0)" xlink:href="#ap"/><use transform="matrix(0.010850694444444444,0,0,0.010850694444444444,18.51128472222222,0)" xlink:href="#aM"/><use transform="matrix(0.010850694444444444,0,0,0.010850694444444444,25.78125,0)" xlink:href="#ar"/></g><g id="H"><use transform="matrix(0.010850694444444444,0,0,0.010850694444444444,0,0)" xlink:href="#af"/><use transform="matrix(0.010850694444444444,0,0,0.010850694444444444,14.702690972222221,0)" xlink:href="#ai"/><use transform="matrix(0.010850694444444444,0,0,0.010850694444444444,27.842881944444443,0)" xlink:href="#aM"/><use transform="matrix(0.010850694444444444,0,0,0.010850694444444444,35.11284722222222,0)" xlink:href="#aO"/><use transform="matrix(0.010850694444444444,0,0,0.010850694444444444,40.494791666666664,0)" xlink:href="#aV"/><use transform="matrix(0.010850694444444444,0,0,0.010850694444444444,45.87673611111111,0)" xlink:href="#aO"/><use transform="matrix(0.010850694444444444,0,0,0.010850694444444444,51.25868055555556,0)" xlink:href="#aK"/><use transform="matrix(0.010850694444444444,0,0,0.010850694444444444,62.98828125,0)" xlink:href="#aa"/></g><path d="M681 22C323 22 94-145 85-462h297c10 151 131 226 296 226 163 0 271-77 271-190 0-102-95-149-257-189l-164-41c-252-61-403-188-403-405 0-269 236-449 560-449 330 0 546 183 551 445H941c-11-119-106-188-259-188-156 0-244 72-244 172-3 156 226 185 373 221 250 61 445 186 445 436 0 271-213 446-575 446" id="bc"/><g id="I"><use transform="matrix(0.010850694444444444,0,0,0.010850694444444444,0,0)" xlink:href="#bc"/><use transform="matrix(0.010850694444444444,0,0,0.010850694444444444,14.55078125,0)" xlink:href="#aF"/><use transform="matrix(0.010850694444444444,0,0,0.010850694444444444,27.62586805555556,0)" xlink:href="#ad"/><use transform="matrix(0.010850694444444444,0,0,0.010850694444444444,40.86371527777778,0)" xlink:href="#ay"/><use transform="matrix(0.010850694444444444,0,0,0.010850694444444444,54.69835069444444,0)" xlink:href="#aw"/><use transform="matrix(0.010850694444444444,0,0,0.010850694444444444,67.59982638888889,0)" xlink:href="#aI"/><use transform="matrix(0.010850694444444444,0,0,0.010850694444444444,76.81206597222223,0)" xlink:href="#ax"/><use transform="matrix(0.010850694444444444,0,0,0.010850694444444444,82.8342013888889,0)" xlink:href="#at"/></g><path d="M180 0v-1490h908v168H370v486h669v168H370v500h727V0H180" id="bd"/><g id="J"><use transform="matrix(0.010850694444444444,0,0,0.010850694444444444,0,0)" xlink:href="#af"/><use transform="matrix(0.010850694444444444,0,0,0.010850694444444444,14.702690972222221,0)" xlink:href="#W"/><use transform="matrix(0.010850694444444444,0,0,0.010850694444444444,27.180989583333332,0)" xlink:href="#ag"/><use transform="matrix(0.010850694444444444,0,0,0.010850694444444444,32.56293402777778,0)" xlink:href="#ah"/><use transform="matrix(0.010850694444444444,0,0,0.010850694444444444,45.88758680555556,0)" xlink:href="#ai"/><use transform="matrix(0.010850694444444444,0,0,0.010850694444444444,59.02777777777778,0)" xlink:href="#aM"/><use transform="matrix(0.010850694444444444,0,0,0.010850694444444444,66.08072916666667,0)" xlink:href="#aa"/><use transform="matrix(0.010850694444444444,0,0,0.010850694444444444,79.03645833333334,0)" xlink:href="#aj"/><use transform="matrix(0.010850694444444444,0,0,0.010850694444444444,87.74956597222224,0)" xlink:href="#bd"/><use transform="matrix(0.010850694444444444,0,0,0.010850694444444444,101.10677083333334,0)" xlink:href="#ba"/><use transform="matrix(0.010850694444444444,0,0,0.010850694444444444,108.46354166666669,0)" xlink:href="#ba"/><use transform="matrix(0.010850694444444444,0,0,0.010850694444444444,116.0373263888889,0)" xlink:href="#aa"/><use transform="matrix(0.010850694444444444,0,0,0.010850694444444444,128.99305555555557,0)" xlink:href="#aM"/><use transform="matrix(0.010850694444444444,0,0,0.010850694444444444,136.26302083333334,0)" xlink:href="#al"/><use transform="matrix(0.010850694444444444,0,0,0.010850694444444444,144.11892361111111,0)" xlink:href="#aa"/><use transform="matrix(0.010850694444444444,0,0,0.010850694444444444,157.07465277777777,0)" xlink:href="#an"/></g><g id="K"><use transform="matrix(0.010850694444444444,0,0,0.010850694444444444,0,0)" xlink:href="#bd"/><use transform="matrix(0.010850694444444444,0,0,0.010850694444444444,13.35720486111111,0)" xlink:href="#ba"/><use transform="matrix(0.010850694444444444,0,0,0.010850694444444444,20.713975694444443,0)" xlink:href="#ba"/><use transform="matrix(0.010850694444444444,0,0,0.010850694444444444,28.287760416666664,0)" xlink:href="#aa"/><use transform="matrix(0.010850694444444444,0,0,0.010850694444444444,41.24348958333333,0)" xlink:href="#aM"/><use transform="matrix(0.010850694444444444,0,0,0.010850694444444444,48.51345486111111,0)" xlink:href="#aP"/></g><g id="L"><use transform="matrix(0.010850694444444444,0,0,0.010850694444444444,0,0)" xlink:href="#aj"/><use transform="matrix(0.010850694444444444,0,0,0.010850694444444444,7.996961805555555,0)" xlink:href="#aa"/><use transform="matrix(0.010850694444444444,0,0,0.010850694444444444,20.95269097222222,0)" xlink:href="#aL"/><use transform="matrix(0.010850694444444444,0,0,0.010850694444444444,34.55946180555556,0)" xlink:href="#aa"/><use transform="matrix(0.010850694444444444,0,0,0.010850694444444444,47.51519097222222,0)" xlink:href="#aM"/><use transform="matrix(0.010850694444444444,0,0,0.010850694444444444,54.78515625,0)" xlink:href="#aO"/><use transform="matrix(0.010850694444444444,0,0,0.010850694444444444,60.16710069444444,0)" xlink:href="#aM"/><use transform="matrix(0.010850694444444444,0,0,0.010850694444444444,67.43706597222221,0)" xlink:href="#aO"/><use transform="matrix(0.010850694444444444,0,0,0.010850694444444444,72.81901041666666,0)" xlink:href="#ah"/><use transform="matrix(0.010850694444444444,0,0,0.010850694444444444,86.14366319444443,0)" xlink:href="#ap"/><use transform="matrix(0.010850694444444444,0,0,0.010850694444444444,99.2730034722222,0)" xlink:href="#aK"/></g><g id="M"><use transform="matrix(0.010850694444444444,0,0,0.010850694444444444,0,0)" xlink:href="#aO"/><use transform="matrix(0.010850694444444444,0,0,0.010850694444444444,5.381944444444445,0)" xlink:href="#ap"/><use transform="matrix(0.010850694444444444,0,0,0.010850694444444444,18.51128472222222,0)" xlink:href="#aM"/><use transform="matrix(0.010850694444444444,0,0,0.010850694444444444,25.78125,0)" xlink:href="#ar"/></g><g id="N"><use transform="matrix(0.010850694444444444,0,0,0.010850694444444444,0,0)" xlink:href="#af"/><use transform="matrix(0.010850694444444444,0,0,0.010850694444444444,14.702690972222221,0)" xlink:href="#ag"/><use transform="matrix(0.010850694444444444,0,0,0.010850694444444444,20.084635416666664,0)" xlink:href="#ah"/><use transform="matrix(0.010850694444444444,0,0,0.010850694444444444,33.40928819444444,0)" xlink:href="#ai"/><use transform="matrix(0.010850694444444444,0,0,0.010850694444444444,46.549479166666664,0)" xlink:href="#aa"/><use transform="matrix(0.010850694444444444,0,0,0.010850694444444444,59.50520833333333,0)" xlink:href="#aj"/><use transform="matrix(0.010850694444444444,0,0,0.010850694444444444,67.87109375,0)" xlink:href="#ak"/><use transform="matrix(0.010850694444444444,0,0,0.010850694444444444,82.12890625,0)" xlink:href="#ai"/><use transform="matrix(0.010850694444444444,0,0,0.010850694444444444,95.26909722222221,0)" xlink:href="#aj"/><use transform="matrix(0.010850694444444444,0,0,0.010850694444444444,103.6349826388889,0)" xlink:href="#al"/><use transform="matrix(0.010850694444444444,0,0,0.010850694444444444,111.7404513888889,0)" xlink:href="#am"/></g><path d="M128 418v-1536h295v188h14c41-89 129-202 319-202 248 0 453 193 453 575 0 372-197 576-455 576-183 0-275-108-317-198h-9v597H128zm534-640c156 0 240-139 240-336 0-196-83-334-240-334-154 0-241 131-241 334 0 202 88 336 241 336" id="be"/><g id="O"><use transform="matrix(0.010850694444444444,0,0,0.010850694444444444,0,0)" xlink:href="#ab"/><use transform="matrix(0.010850694444444444,0,0,0.010850694444444444,13.49826388888889,0)" xlink:href="#ae"/><use transform="matrix(0.010850694444444444,0,0,0.010850694444444444,21.744791666666668,0)" xlink:href="#aw"/><use transform="matrix(0.010850694444444444,0,0,0.010850694444444444,34.646267361111114,0)" xlink:href="#be"/><use transform="matrix(0.010850694444444444,0,0,0.010850694444444444,48.6545138888889,0)" xlink:href="#ad"/></g><g id="P"><use transform="matrix(0.010850694444444444,0,0,0.010850694444444444,0,0)" xlink:href="#aJ"/><use transform="matrix(0.010850694444444444,0,0,0.010850694444444444,10.221354166666666,0)" xlink:href="#aj"/><use transform="matrix(0.010850694444444444,0,0,0.010850694444444444,18.21831597222222,0)" xlink:href="#aa"/><use transform="matrix(0.010850694444444444,0,0,0.010850694444444444,31.17404513888889,0)" xlink:href="#aL"/><use transform="matrix(0.010850694444444444,0,0,0.010850694444444444,44.78081597222221,0)" xlink:href="#aa"/><use transform="matrix(0.010850694444444444,0,0,0.010850694444444444,57.73654513888888,0)" xlink:href="#aM"/><use transform="matrix(0.010850694444444444,0,0,0.010850694444444444,65.00651041666666,0)" xlink:href="#aO"/><use transform="matrix(0.010850694444444444,0,0,0.010850694444444444,70.3884548611111,0)" xlink:href="#aM"/><use transform="matrix(0.010850694444444444,0,0,0.010850694444444444,77.65842013888887,0)" xlink:href="#aO"/><use transform="matrix(0.010850694444444444,0,0,0.010850694444444444,83.04036458333331,0)" xlink:href="#ah"/><use transform="matrix(0.010850694444444444,0,0,0.010850694444444444,96.36501736111109,0)" xlink:href="#ap"/><use transform="matrix(0.010850694444444444,0,0,0.010850694444444444,109.49435763888887,0)" xlink:href="#aK"/></g><g id="Q"><use transform="matrix(0.010850694444444444,0,0,0.010850694444444444,0,0)" xlink:href="#aO"/><use transform="matrix(0.010850694444444444,0,0,0.010850694444444444,5.381944444444445,0)" xlink:href="#ap"/><use transform="matrix(0.010850694444444444,0,0,0.010850694444444444,18.51128472222222,0)" xlink:href="#aM"/></g><path d="M653-1490V0H466v-1314h-10L96-1047v-204l324-239h233" id="bf"/><path d="M441-652l13-317-268 171-72-126 282-146-282-146 72-128 268 171-13-317h144l-12 317 267-171 72 128-282 146 282 146-72 126-267-171 12 317H441" id="bg"/><g id="R"><use transform="matrix(0.008173828125000001,0,0,0.008173828125000001,0,0)" xlink:href="#bf"/><use transform="matrix(0.008173828125000001,0,0,0.008173828125000001,6.808798828125001,0)" xlink:href="#aX"/><use transform="matrix(0.008173828125000001,0,0,0.008173828125000001,11.631357421875002,0)" xlink:href="#aX"/><use transform="matrix(0.008173828125000001,0,0,0.008173828125000001,16.453916015625,0)" xlink:href="#bg"/></g><path d="M646 20c-332 0-524-278-524-764 0-483 194-766 524-766s524 283 524 766c0 485-191 764-524 764zm0-166c218 0 341-220 341-598 0-380-123-601-341-601s-341 222-341 601c0 378 123 598 341 598" id="bh"/><g id="S"><use transform="matrix(0.008173828125000001,0,0,0.008173828125000001,0,0)" xlink:href="#bh"/><use transform="matrix(0.008173828125000001,0,0,0.008173828125000001,10.135546875000001,0)" xlink:href="#aX"/><use transform="matrix(0.008173828125000001,0,0,0.008173828125000001,14.958105468750002,0)" xlink:href="#aX"/><use transform="matrix(0.008173828125000001,0,0,0.008173828125000001,19.7806640625,0)" xlink:href="#bg"/></g><path d="M174-520v-126l944-476v196L406-588v12l712 338v194" id="bi"/><use transform="matrix(0.010850694444444444,0,0,0.010850694444444444,0,0)" xlink:href="#bi" id="T"/><g id="U"><use transform="matrix(0.010850694444444444,0,0,0.010850694444444444,0,0)" xlink:href="#X"/><use transform="matrix(0.010850694444444444,0,0,0.010850694444444444,12.6953125,0)" xlink:href="#ah"/><use transform="matrix(0.010850694444444444,0,0,0.010850694444444444,26.01996527777778,0)" xlink:href="#aU"/><use transform="matrix(0.010850694444444444,0,0,0.010850694444444444,45.48611111111111,0)" xlink:href="#aL"/><use transform="matrix(0.010850694444444444,0,0,0.010850694444444444,59.09288194444444,0)" xlink:href="#ah"/><use transform="matrix(0.010850694444444444,0,0,0.010850694444444444,72.41753472222221,0)" xlink:href="#aK"/><use transform="matrix(0.010850694444444444,0,0,0.010850694444444444,84.14713541666666,0)" xlink:href="#aa"/></g></defs></g></svg>